<?xml version="1.0" encoding="UTF-8"?>
<svg xmlns="http://www.w3.org/2000/svg" xmlns:xlink="http://www.w3.org/1999/xlink" width="288pt" height="288pt" viewBox="0 0 288 288" version="1.1">
<defs>
<clipPath id="clip1">
  <path d="M 38.609375 9.90625 L 270.992188 9.90625 L 270.992188 279.742188 L 38.609375 279.742188 Z M 38.609375 9.90625 "/>
</clipPath>
<clipPath id="clip2">
  <path d="M 38.609375 279 L 270.992188 279 L 270.992188 279.742188 L 38.609375 279.742188 Z M 38.609375 279 "/>
</clipPath>
<clipPath id="clip3">
  <path d="M 54 34 L 62 34 L 62 279.742188 L 54 279.742188 Z M 54 34 "/>
</clipPath>
<clipPath id="clip4">
  <path d="M 53 34 L 62 34 L 62 279.742188 L 53 279.742188 Z M 53 34 "/>
</clipPath>
<clipPath id="clip5">
  <path d="M 62 121 L 70 121 L 70 279.742188 L 62 279.742188 Z M 62 121 "/>
</clipPath>
<clipPath id="clip6">
  <path d="M 62 120 L 71 120 L 71 279.742188 L 62 279.742188 Z M 62 120 "/>
</clipPath>
<clipPath id="clip7">
  <path d="M 70 139 L 78 139 L 78 279.742188 L 70 279.742188 Z M 70 139 "/>
</clipPath>
<clipPath id="clip8">
  <path d="M 70 138 L 79 138 L 79 279.742188 L 70 279.742188 Z M 70 138 "/>
</clipPath>
<clipPath id="clip9">
  <path d="M 78 149 L 86 149 L 86 279.742188 L 78 279.742188 Z M 78 149 "/>
</clipPath>
<clipPath id="clip10">
  <path d="M 78 149 L 87 149 L 87 279.742188 L 78 279.742188 Z M 78 149 "/>
</clipPath>
<clipPath id="clip11">
  <path d="M 86 159 L 94 159 L 94 279.742188 L 86 279.742188 Z M 86 159 "/>
</clipPath>
<clipPath id="clip12">
  <path d="M 86 158 L 95 158 L 95 279.742188 L 86 279.742188 Z M 86 158 "/>
</clipPath>
<clipPath id="clip13">
  <path d="M 94 184 L 102 184 L 102 279.742188 L 94 279.742188 Z M 94 184 "/>
</clipPath>
<clipPath id="clip14">
  <path d="M 94 183 L 103 183 L 103 279.742188 L 94 279.742188 Z M 94 183 "/>
</clipPath>
<clipPath id="clip15">
  <path d="M 102 201 L 111 201 L 111 279.742188 L 102 279.742188 Z M 102 201 "/>
</clipPath>
<clipPath id="clip16">
  <path d="M 102 200 L 111 200 L 111 279.742188 L 102 279.742188 Z M 102 200 "/>
</clipPath>
<clipPath id="clip17">
  <path d="M 110 219 L 119 219 L 119 279.742188 L 110 279.742188 Z M 110 219 "/>
</clipPath>
<clipPath id="clip18">
  <path d="M 118 224 L 127 224 L 127 279.742188 L 118 279.742188 Z M 118 224 "/>
</clipPath>
<clipPath id="clip19">
  <path d="M 126 230 L 135 230 L 135 279.742188 L 126 279.742188 Z M 126 230 "/>
</clipPath>
<clipPath id="clip20">
  <path d="M 135 239 L 143 239 L 143 279.742188 L 135 279.742188 Z M 135 239 "/>
</clipPath>
<clipPath id="clip21">
  <path d="M 134 239 L 143 239 L 143 279.742188 L 134 279.742188 Z M 134 239 "/>
</clipPath>
<clipPath id="clip22">
  <path d="M 143 243 L 151 243 L 151 279.742188 L 143 279.742188 Z M 143 243 "/>
</clipPath>
<clipPath id="clip23">
  <path d="M 142 243 L 151 243 L 151 279.742188 L 142 279.742188 Z M 142 243 "/>
</clipPath>
<clipPath id="clip24">
  <path d="M 151 251 L 159 251 L 159 279.742188 L 151 279.742188 Z M 151 251 "/>
</clipPath>
<clipPath id="clip25">
  <path d="M 150 251 L 159 251 L 159 279.742188 L 150 279.742188 Z M 150 251 "/>
</clipPath>
<clipPath id="clip26">
  <path d="M 159 258 L 167 258 L 167 279.742188 L 159 279.742188 Z M 159 258 "/>
</clipPath>
<clipPath id="clip27">
  <path d="M 158 258 L 167 258 L 167 279.742188 L 158 279.742188 Z M 158 258 "/>
</clipPath>
<clipPath id="clip28">
  <path d="M 167 259 L 175 259 L 175 279.742188 L 167 279.742188 Z M 167 259 "/>
</clipPath>
<clipPath id="clip29">
  <path d="M 166 258 L 175 258 L 175 279.742188 L 166 279.742188 Z M 166 258 "/>
</clipPath>
<clipPath id="clip30">
  <path d="M 175 264 L 183 264 L 183 279.742188 L 175 279.742188 Z M 175 264 "/>
</clipPath>
<clipPath id="clip31">
  <path d="M 175 264 L 184 264 L 184 279.742188 L 175 279.742188 Z M 175 264 "/>
</clipPath>
<clipPath id="clip32">
  <path d="M 183 266 L 191 266 L 191 279.742188 L 183 279.742188 Z M 183 266 "/>
</clipPath>
<clipPath id="clip33">
  <path d="M 183 265 L 192 265 L 192 279.742188 L 183 279.742188 Z M 183 265 "/>
</clipPath>
<clipPath id="clip34">
  <path d="M 191 269 L 199 269 L 199 279.742188 L 191 279.742188 Z M 191 269 "/>
</clipPath>
<clipPath id="clip35">
  <path d="M 191 269 L 200 269 L 200 279.742188 L 191 279.742188 Z M 191 269 "/>
</clipPath>
<clipPath id="clip36">
  <path d="M 199 271 L 207 271 L 207 279.742188 L 199 279.742188 Z M 199 271 "/>
</clipPath>
<clipPath id="clip37">
  <path d="M 199 270 L 208 270 L 208 279.742188 L 199 279.742188 Z M 199 270 "/>
</clipPath>
<clipPath id="clip38">
  <path d="M 207 272 L 215 272 L 215 279.742188 L 207 279.742188 Z M 207 272 "/>
</clipPath>
<clipPath id="clip39">
  <path d="M 207 272 L 216 272 L 216 279.742188 L 207 279.742188 Z M 207 272 "/>
</clipPath>
<clipPath id="clip40">
  <path d="M 215 275 L 223 275 L 223 279.742188 L 215 279.742188 Z M 215 275 "/>
</clipPath>
<clipPath id="clip41">
  <path d="M 215 275 L 224 275 L 224 279.742188 L 215 279.742188 Z M 215 275 "/>
</clipPath>
<clipPath id="clip42">
  <path d="M 223 277 L 232 277 L 232 279.742188 L 223 279.742188 Z M 223 277 "/>
</clipPath>
<clipPath id="clip43">
  <path d="M 231 278 L 240 278 L 240 279.742188 L 231 279.742188 Z M 231 278 "/>
</clipPath>
<clipPath id="clip44">
  <path d="M 231 277 L 240 277 L 240 279.742188 L 231 279.742188 Z M 231 277 "/>
</clipPath>
<clipPath id="clip45">
  <path d="M 239 279 L 248 279 L 248 279.742188 L 239 279.742188 Z M 239 279 "/>
</clipPath>
<clipPath id="clip46">
  <path d="M 239 278 L 248 278 L 248 279.742188 L 239 279.742188 Z M 239 278 "/>
</clipPath>
<clipPath id="clip47">
  <path d="M 247 279 L 256 279 L 256 279.742188 L 247 279.742188 Z M 247 279 "/>
</clipPath>
</defs>
<g id="surface2407">
<rect x="0" y="0" width="288" height="288" style="fill:rgb(100%,100%,100%);fill-opacity:1;stroke:none;"/>
<path style=" stroke:none;fill-rule:evenodd;fill:rgb(0%,0%,0%);fill-opacity:1;" d="M 8.257812 160.394531 L 0 160.394531 L 0 159.273438 L 8.257812 159.273438 Z M 8.257812 160.394531 "/>
<path style=" stroke:none;fill-rule:evenodd;fill:rgb(0%,0%,0%);fill-opacity:1;" d="M 8.257812 153.332031 L 4.238281 153.332031 L 4.144531 153.335938 L 4.058594 153.335938 L 3.972656 153.339844 L 3.890625 153.34375 L 3.734375 153.359375 L 3.664062 153.367188 L 3.59375 153.378906 L 3.527344 153.390625 L 3.464844 153.402344 L 3.402344 153.417969 L 3.34375 153.433594 L 3.289062 153.449219 L 3.234375 153.46875 L 3.183594 153.488281 L 3.132812 153.511719 L 3.089844 153.535156 L 3.042969 153.5625 L 3.003906 153.589844 L 2.925781 153.652344 L 2.890625 153.683594 L 2.859375 153.722656 L 2.828125 153.757812 L 2.800781 153.796875 L 2.773438 153.839844 L 2.75 153.882812 L 2.710938 153.976562 L 2.695312 154.023438 L 2.679688 154.074219 L 2.664062 154.128906 L 2.652344 154.183594 L 2.644531 154.242188 L 2.632812 154.300781 L 2.625 154.363281 L 2.617188 154.496094 L 2.613281 154.566406 L 2.613281 154.714844 L 2.617188 154.789062 L 2.625 154.859375 L 2.636719 154.929688 L 2.648438 154.996094 L 2.660156 155.066406 L 2.679688 155.128906 L 2.699219 155.195312 L 2.722656 155.257812 L 2.75 155.320312 L 2.773438 155.378906 L 2.804688 155.4375 L 2.835938 155.492188 L 2.871094 155.546875 L 2.90625 155.597656 L 2.945312 155.648438 L 2.988281 155.699219 L 3.03125 155.746094 L 3.078125 155.792969 L 3.128906 155.835938 L 3.230469 155.914062 L 3.289062 155.953125 L 3.34375 155.988281 L 3.40625 156.023438 L 3.46875 156.054688 L 3.535156 156.085938 L 3.601562 156.113281 L 3.671875 156.140625 L 3.746094 156.164062 L 3.816406 156.1875 L 3.894531 156.207031 L 4.050781 156.238281 L 4.136719 156.25 L 4.21875 156.261719 L 4.398438 156.277344 L 4.488281 156.28125 L 8.257812 156.28125 L 8.257812 157.335938 L 3.023438 157.335938 L 2.980469 157.339844 L 2.722656 157.339844 L 2.679688 157.34375 L 2.515625 157.34375 L 2.476562 157.347656 L 2.359375 157.347656 L 2.324219 157.351562 L 2.253906 157.351562 L 2.21875 157.355469 L 2.15625 157.355469 L 2.125 157.359375 L 2.046875 157.359375 L 2.023438 157.363281 L 1.980469 157.363281 L 1.964844 157.367188 L 1.9375 157.367188 L 1.925781 157.371094 L 1.917969 157.371094 L 1.917969 156.375 L 1.921875 156.375 L 1.933594 156.371094 L 1.957031 156.371094 L 1.96875 156.367188 L 2.003906 156.367188 L 2.027344 156.363281 L 2.101562 156.363281 L 2.128906 156.359375 L 2.183594 156.359375 L 2.214844 156.355469 L 2.273438 156.355469 L 2.308594 156.351562 L 2.375 156.351562 L 2.40625 156.347656 L 2.4375 156.347656 L 2.472656 156.34375 L 2.507812 156.34375 L 2.539062 156.339844 L 2.574219 156.339844 L 2.609375 156.335938 L 2.679688 156.335938 L 2.714844 156.332031 L 2.808594 156.332031 L 2.839844 156.328125 L 3 156.328125 L 3 156.308594 L 2.890625 156.246094 L 2.789062 156.183594 L 2.738281 156.148438 L 2.6875 156.117188 L 2.546875 156.011719 L 2.503906 155.976562 L 2.457031 155.9375 L 2.414062 155.902344 L 2.375 155.863281 L 2.335938 155.820312 L 2.296875 155.78125 L 2.261719 155.738281 L 2.226562 155.691406 L 2.191406 155.648438 L 2.15625 155.601562 L 2.128906 155.554688 L 2.097656 155.503906 L 2.066406 155.457031 L 2.039062 155.402344 L 2.011719 155.351562 L 1.964844 155.242188 L 1.941406 155.183594 L 1.902344 155.066406 L 1.871094 154.941406 L 1.855469 154.875 L 1.84375 154.808594 L 1.820312 154.667969 L 1.8125 154.59375 L 1.808594 154.519531 L 1.800781 154.441406 L 1.800781 154.179688 L 1.804688 154.078125 L 1.808594 153.980469 L 1.820312 153.882812 L 1.84375 153.703125 L 1.882812 153.53125 L 1.902344 153.453125 L 1.929688 153.375 L 1.953125 153.300781 L 1.984375 153.226562 L 2.019531 153.15625 L 2.054688 153.089844 L 2.132812 152.964844 L 2.175781 152.90625 L 2.222656 152.851562 L 2.273438 152.796875 L 2.328125 152.746094 L 2.382812 152.699219 L 2.441406 152.65625 L 2.566406 152.570312 L 2.707031 152.5 L 2.78125 152.46875 L 2.859375 152.441406 L 2.941406 152.414062 L 3.023438 152.390625 L 3.109375 152.367188 L 3.199219 152.347656 L 3.386719 152.316406 L 3.488281 152.300781 L 3.589844 152.292969 L 3.695312 152.285156 L 3.804688 152.277344 L 3.914062 152.273438 L 8.257812 152.273438 Z M 8.257812 153.332031 "/>
<path style=" stroke:none;fill-rule:evenodd;fill:rgb(0%,0%,0%);fill-opacity:1;" d="M 5.308594 149.875 L 5.40625 149.875 L 5.601562 149.867188 L 5.789062 149.851562 L 5.96875 149.828125 L 6.058594 149.8125 L 6.144531 149.796875 L 6.230469 149.777344 L 6.3125 149.753906 L 6.390625 149.730469 L 6.46875 149.703125 L 6.542969 149.675781 L 6.617188 149.644531 L 6.6875 149.613281 L 6.757812 149.578125 L 6.824219 149.539062 L 6.949219 149.460938 L 7.007812 149.414062 L 7.117188 149.320312 L 7.167969 149.269531 L 7.214844 149.214844 L 7.261719 149.15625 L 7.304688 149.097656 L 7.34375 149.039062 L 7.382812 148.976562 L 7.417969 148.910156 L 7.449219 148.839844 L 7.476562 148.769531 L 7.523438 148.621094 L 7.542969 148.542969 L 7.554688 148.460938 L 7.566406 148.375 L 7.574219 148.289062 L 7.582031 148.199219 L 7.582031 148.105469 L 7.578125 147.972656 L 7.570312 147.84375 L 7.558594 147.71875 L 7.539062 147.601562 L 7.511719 147.488281 L 7.484375 147.382812 L 7.445312 147.28125 L 7.40625 147.1875 L 7.359375 147.097656 L 7.308594 147.011719 L 7.25 146.929688 L 7.191406 146.855469 L 7.128906 146.785156 L 7.0625 146.722656 L 6.996094 146.664062 L 6.921875 146.609375 L 6.847656 146.5625 L 6.773438 146.519531 L 6.691406 146.480469 L 6.609375 146.449219 L 6.875 145.523438 L 6.925781 145.542969 L 6.980469 145.566406 L 7.03125 145.589844 L 7.085938 145.617188 L 7.136719 145.644531 L 7.191406 145.671875 L 7.246094 145.703125 L 7.296875 145.734375 L 7.40625 145.804688 L 7.457031 145.839844 L 7.511719 145.878906 L 7.558594 145.921875 L 7.609375 145.964844 L 7.660156 146.011719 L 7.707031 146.058594 L 7.753906 146.109375 L 7.796875 146.164062 L 7.84375 146.21875 L 7.886719 146.277344 L 7.929688 146.339844 L 8.007812 146.472656 L 8.042969 146.542969 L 8.082031 146.617188 L 8.113281 146.691406 L 8.148438 146.773438 L 8.179688 146.855469 L 8.210938 146.941406 L 8.238281 147.027344 L 8.265625 147.121094 L 8.285156 147.214844 L 8.308594 147.3125 L 8.324219 147.414062 L 8.339844 147.519531 L 8.351562 147.628906 L 8.359375 147.742188 L 8.367188 147.859375 L 8.371094 147.980469 L 8.375 148.105469 L 8.363281 148.382812 L 8.339844 148.644531 L 8.296875 148.890625 L 8.238281 149.125 L 8.164062 149.347656 L 8.070312 149.554688 L 7.960938 149.75 L 7.835938 149.929688 L 7.695312 150.097656 L 7.535156 150.25 L 7.359375 150.390625 L 7.167969 150.515625 L 6.960938 150.625 L 6.734375 150.71875 L 6.492188 150.800781 L 6.238281 150.867188 L 5.964844 150.917969 L 5.671875 150.953125 L 5.367188 150.976562 L 5.046875 150.984375 L 4.871094 150.980469 L 4.699219 150.976562 L 4.535156 150.964844 L 4.375 150.949219 L 4.222656 150.929688 L 4.074219 150.902344 L 3.933594 150.875 L 3.796875 150.839844 L 3.664062 150.804688 L 3.539062 150.761719 L 3.417969 150.714844 L 3.300781 150.664062 L 3.1875 150.613281 L 3.078125 150.558594 L 2.976562 150.496094 L 2.878906 150.433594 L 2.785156 150.367188 L 2.695312 150.300781 L 2.609375 150.226562 L 2.53125 150.152344 L 2.457031 150.074219 L 2.386719 149.992188 L 2.320312 149.90625 L 2.257812 149.820312 L 2.199219 149.734375 L 2.144531 149.640625 L 2.097656 149.546875 L 2.050781 149.449219 L 2.011719 149.351562 L 1.976562 149.25 L 1.941406 149.144531 L 1.910156 149.039062 L 1.886719 148.933594 L 1.863281 148.824219 L 1.84375 148.714844 L 1.828125 148.605469 L 1.804688 148.378906 L 1.800781 148.265625 L 1.800781 147.992188 L 1.808594 147.839844 L 1.820312 147.695312 L 1.839844 147.550781 L 1.863281 147.417969 L 1.890625 147.285156 L 1.925781 147.160156 L 1.964844 147.042969 L 2.007812 146.925781 L 2.058594 146.816406 L 2.109375 146.710938 L 2.167969 146.609375 L 2.292969 146.421875 L 2.363281 146.332031 L 2.4375 146.25 L 2.515625 146.167969 L 2.597656 146.09375 L 2.683594 146.023438 L 2.773438 145.957031 L 2.863281 145.894531 L 2.957031 145.832031 L 3.058594 145.777344 L 3.160156 145.726562 L 3.265625 145.675781 L 3.371094 145.632812 L 3.597656 145.554688 L 3.714844 145.523438 L 3.839844 145.492188 L 3.960938 145.46875 L 4.089844 145.441406 L 4.214844 145.421875 L 4.347656 145.402344 L 4.476562 145.386719 L 4.613281 145.375 L 4.746094 145.367188 L 4.886719 145.359375 L 5.167969 145.351562 L 5.308594 145.351562 Z M 4.5 146.441406 L 4.304688 146.464844 L 4.121094 146.492188 L 3.949219 146.527344 L 3.785156 146.566406 L 3.632812 146.613281 L 3.492188 146.667969 L 3.363281 146.730469 L 3.246094 146.796875 L 3.136719 146.871094 L 3.042969 146.953125 L 2.953125 147.039062 L 2.875 147.136719 L 2.804688 147.238281 L 2.746094 147.347656 L 2.695312 147.464844 L 2.652344 147.589844 L 2.621094 147.722656 L 2.597656 147.863281 L 2.582031 148.011719 L 2.578125 148.164062 L 2.578125 148.21875 L 2.585938 148.328125 L 2.609375 148.492188 L 2.621094 148.550781 L 2.632812 148.605469 L 2.648438 148.664062 L 2.667969 148.722656 L 2.683594 148.777344 L 2.703125 148.835938 L 2.726562 148.890625 L 2.78125 149 L 2.8125 149.050781 L 2.847656 149.105469 L 2.882812 149.15625 L 2.921875 149.207031 L 2.964844 149.253906 L 3.011719 149.304688 L 3.058594 149.351562 L 3.109375 149.394531 L 3.164062 149.441406 L 3.222656 149.480469 L 3.28125 149.523438 L 3.414062 149.601562 L 3.484375 149.636719 L 3.558594 149.671875 L 3.632812 149.703125 L 3.710938 149.734375 L 3.796875 149.761719 L 3.886719 149.785156 L 3.976562 149.804688 L 4.074219 149.824219 L 4.277344 149.847656 L 4.386719 149.859375 L 4.5 149.863281 Z M 4.5 146.441406 "/>
<path style=" stroke:none;fill-rule:evenodd;fill:rgb(0%,0%,0%);fill-opacity:1;" d="M 8.257812 143.988281 L 3.152344 143.988281 L 3.109375 143.992188 L 2.863281 143.992188 L 2.824219 143.996094 L 2.660156 143.996094 L 2.621094 144 L 2.507812 144 L 2.46875 144.003906 L 2.398438 144.003906 L 2.359375 144.007812 L 2.289062 144.007812 L 2.253906 144.011719 L 2.152344 144.011719 L 2.121094 144.015625 L 2.058594 144.015625 L 2.03125 144.019531 L 1.972656 144.019531 L 1.941406 144.023438 L 1.917969 144.023438 L 1.917969 143.027344 L 1.945312 143.027344 L 1.972656 143.023438 L 2.03125 143.023438 L 2.0625 143.019531 L 2.125 143.019531 L 2.15625 143.015625 L 2.226562 143.015625 L 2.261719 143.011719 L 2.296875 143.011719 L 2.328125 143.007812 L 2.363281 143.007812 L 2.398438 143.003906 L 2.433594 143.003906 L 2.46875 143 L 2.542969 143 L 2.578125 142.996094 L 2.613281 142.996094 L 2.648438 142.992188 L 2.6875 142.992188 L 2.722656 142.988281 L 2.828125 142.988281 L 2.859375 142.984375 L 3.023438 142.984375 L 3.054688 142.980469 L 3.210938 142.980469 L 3.210938 142.957031 L 3 142.886719 L 2.9375 142.867188 L 2.871094 142.84375 L 2.8125 142.820312 L 2.75 142.792969 L 2.695312 142.769531 L 2.636719 142.746094 L 2.585938 142.722656 L 2.53125 142.695312 L 2.429688 142.640625 L 2.382812 142.613281 L 2.296875 142.550781 L 2.253906 142.523438 L 2.214844 142.488281 L 2.179688 142.457031 L 2.109375 142.386719 L 2.046875 142.316406 L 1.992188 142.238281 L 1.921875 142.109375 L 1.902344 142.066406 L 1.871094 141.972656 L 1.855469 141.921875 L 1.84375 141.871094 L 1.832031 141.816406 L 1.820312 141.757812 L 1.8125 141.703125 L 1.808594 141.640625 L 1.800781 141.582031 L 1.800781 141.347656 L 1.808594 141.300781 L 1.808594 141.277344 L 1.8125 141.25 L 1.816406 141.226562 L 1.824219 141.203125 L 1.824219 141.179688 L 1.84375 141.082031 L 1.855469 141.035156 L 1.859375 141.023438 L 2.824219 141.023438 L 2.820312 141.042969 L 2.8125 141.066406 L 2.796875 141.160156 L 2.785156 141.242188 L 2.785156 141.269531 L 2.78125 141.296875 L 2.777344 141.328125 L 2.773438 141.355469 L 2.773438 141.386719 L 2.769531 141.417969 L 2.769531 141.449219 L 2.765625 141.484375 L 2.765625 141.65625 L 2.773438 141.726562 L 2.78125 141.792969 L 2.792969 141.859375 L 2.824219 141.984375 L 2.847656 142.042969 L 2.871094 142.097656 L 2.898438 142.152344 L 2.929688 142.207031 L 2.964844 142.257812 L 3 142.304688 L 3.039062 142.351562 L 3.125 142.4375 L 3.171875 142.476562 L 3.273438 142.554688 L 3.328125 142.589844 L 3.445312 142.652344 L 3.507812 142.683594 L 3.570312 142.710938 L 3.636719 142.734375 L 3.703125 142.761719 L 3.773438 142.78125 L 3.847656 142.804688 L 3.921875 142.824219 L 4.078125 142.855469 L 4.160156 142.871094 L 4.324219 142.894531 L 4.410156 142.90625 L 4.582031 142.921875 L 4.671875 142.925781 L 4.765625 142.929688 L 4.855469 142.933594 L 8.257812 142.933594 Z M 8.257812 143.988281 "/>
<path style=" stroke:none;fill-rule:evenodd;fill:rgb(0%,0%,0%);fill-opacity:1;" d="M 8.210938 137.578125 L 8.222656 137.625 L 8.234375 137.675781 L 8.246094 137.722656 L 8.257812 137.773438 L 8.265625 137.820312 L 8.277344 137.871094 L 8.285156 137.917969 L 8.324219 138.171875 L 8.328125 138.226562 L 8.335938 138.28125 L 8.339844 138.335938 L 8.347656 138.453125 L 8.347656 138.578125 L 8.351562 138.644531 L 8.335938 138.882812 L 8.292969 139.097656 L 8.21875 139.289062 L 8.121094 139.453125 L 7.992188 139.59375 L 7.832031 139.707031 L 7.644531 139.796875 L 7.429688 139.859375 L 7.1875 139.898438 L 6.914062 139.910156 L 2.683594 139.910156 L 2.683594 140.640625 L 1.917969 140.640625 L 1.917969 139.867188 L 0.5 139.558594 L 0.5 138.855469 L 1.917969 138.855469 L 1.917969 137.683594 L 2.683594 137.683594 L 2.683594 138.855469 L 6.6875 138.855469 L 6.859375 138.847656 L 7.007812 138.832031 L 7.074219 138.816406 L 7.136719 138.800781 L 7.246094 138.761719 L 7.332031 138.707031 L 7.363281 138.675781 L 7.394531 138.640625 L 7.421875 138.597656 L 7.445312 138.550781 L 7.484375 138.449219 L 7.496094 138.390625 L 7.511719 138.257812 L 7.511719 138.125 L 7.507812 138.097656 L 7.507812 138.039062 L 7.503906 138.007812 L 7.5 137.980469 L 7.496094 137.949219 L 7.488281 137.894531 L 7.484375 137.863281 L 7.476562 137.835938 L 7.46875 137.773438 L 7.460938 137.742188 L 7.457031 137.710938 L 7.449219 137.675781 L 7.441406 137.644531 L 7.4375 137.609375 L 7.429688 137.578125 Z M 8.210938 137.578125 "/>
<path style=" stroke:none;fill-rule:evenodd;fill:rgb(0%,0%,0%);fill-opacity:1;" d="M 0.570312 136.6875 L -0.4375 136.6875 L -0.4375 135.632812 L 0.570312 135.632812 Z M 8.257812 136.6875 L 1.917969 136.6875 L 1.917969 135.632812 L 8.257812 135.632812 Z M 8.257812 136.6875 "/>
<path style=" stroke:none;fill-rule:evenodd;fill:rgb(0%,0%,0%);fill-opacity:1;" d="M 8.375 132.398438 L 8.367188 132.585938 L 8.351562 132.761719 L 8.328125 132.929688 L 8.292969 133.085938 L 8.246094 133.234375 L 8.191406 133.375 L 8.125 133.503906 L 8.050781 133.621094 L 7.964844 133.734375 L 7.871094 133.832031 L 7.765625 133.925781 L 7.652344 134.007812 L 7.53125 134.078125 L 7.40625 134.140625 L 7.273438 134.195312 L 7.128906 134.238281 L 6.980469 134.269531 L 6.824219 134.292969 L 6.660156 134.308594 L 6.488281 134.3125 L 6.363281 134.3125 L 6.246094 134.304688 L 6.128906 134.292969 L 6.019531 134.277344 L 5.816406 134.230469 L 5.71875 134.199219 L 5.628906 134.164062 L 5.542969 134.125 L 5.460938 134.078125 L 5.382812 134.03125 L 5.304688 133.976562 L 5.234375 133.921875 L 5.164062 133.863281 L 5.101562 133.804688 L 5.039062 133.742188 L 4.980469 133.675781 L 4.925781 133.605469 L 4.875 133.53125 L 4.828125 133.457031 L 4.742188 133.300781 L 4.703125 133.21875 L 4.667969 133.132812 L 4.636719 133.046875 L 4.605469 132.957031 L 4.578125 132.867188 L 4.550781 132.773438 L 4.511719 132.578125 L 4.480469 132.382812 L 4.464844 132.28125 L 4.453125 132.183594 L 4.441406 132.082031 L 4.433594 131.984375 L 4.417969 131.78125 L 4.414062 131.679688 L 4.414062 131.578125 L 4.390625 130.152344 L 4.042969 130.152344 L 3.964844 130.15625 L 3.890625 130.15625 L 3.816406 130.160156 L 3.746094 130.167969 L 3.613281 130.183594 L 3.488281 130.207031 L 3.429688 130.21875 L 3.375 130.234375 L 3.320312 130.253906 L 3.21875 130.292969 L 3.125 130.339844 L 3.082031 130.367188 L 3.042969 130.394531 L 3 130.421875 L 2.964844 130.453125 L 2.929688 130.488281 L 2.867188 130.558594 L 2.835938 130.597656 L 2.808594 130.636719 L 2.785156 130.679688 L 2.757812 130.722656 L 2.699219 130.863281 L 2.667969 130.964844 L 2.652344 131.019531 L 2.640625 131.074219 L 2.632812 131.132812 L 2.621094 131.191406 L 2.613281 131.25 L 2.609375 131.3125 L 2.601562 131.445312 L 2.601562 131.632812 L 2.605469 131.691406 L 2.609375 131.746094 L 2.613281 131.804688 L 2.617188 131.859375 L 2.625 131.910156 L 2.632812 131.964844 L 2.640625 132.015625 L 2.648438 132.0625 L 2.65625 132.113281 L 2.679688 132.207031 L 2.695312 132.25 L 2.707031 132.292969 L 2.726562 132.335938 L 2.742188 132.375 L 2.761719 132.417969 L 2.785156 132.453125 L 2.808594 132.492188 L 2.828125 132.527344 L 2.855469 132.5625 L 2.910156 132.625 L 2.941406 132.65625 L 3.003906 132.710938 L 3.042969 132.738281 L 3.078125 132.761719 L 3.117188 132.785156 L 3.15625 132.804688 L 3.242188 132.84375 L 3.289062 132.863281 L 3.335938 132.875 L 3.386719 132.890625 L 3.441406 132.902344 L 3.492188 132.914062 L 3.609375 132.929688 L 3.511719 134.03125 L 3.433594 134.019531 L 3.363281 134.003906 L 3.289062 133.988281 L 3.21875 133.96875 L 3.152344 133.949219 L 3.082031 133.925781 L 2.949219 133.871094 L 2.761719 133.777344 L 2.703125 133.738281 L 2.640625 133.699219 L 2.53125 133.613281 L 2.476562 133.566406 L 2.425781 133.515625 L 2.324219 133.40625 L 2.28125 133.347656 L 2.234375 133.285156 L 2.191406 133.21875 L 2.152344 133.152344 L 2.113281 133.078125 L 2.042969 132.929688 L 1.980469 132.765625 L 1.953125 132.679688 L 1.929688 132.589844 L 1.902344 132.496094 L 1.882812 132.402344 L 1.863281 132.300781 L 1.84375 132.195312 L 1.820312 131.976562 L 1.808594 131.859375 L 1.800781 131.617188 L 1.800781 131.488281 L 1.804688 131.257812 L 1.820312 131.035156 L 1.847656 130.824219 L 1.886719 130.628906 L 1.9375 130.441406 L 1.996094 130.269531 L 2.070312 130.105469 L 2.152344 129.957031 L 2.246094 129.816406 L 2.351562 129.691406 L 2.464844 129.574219 L 2.585938 129.472656 L 2.722656 129.382812 L 2.863281 129.304688 L 3.019531 129.238281 L 3.179688 129.183594 L 3.355469 129.140625 L 3.535156 129.113281 L 3.730469 129.09375 L 3.933594 129.085938 L 6.753906 129.085938 L 6.839844 129.082031 L 6.921875 129.078125 L 7 129.066406 L 7.074219 129.054688 L 7.140625 129.042969 L 7.207031 129.027344 L 7.265625 129.007812 L 7.320312 128.988281 L 7.371094 128.964844 L 7.414062 128.9375 L 7.457031 128.90625 L 7.492188 128.871094 L 7.519531 128.832031 L 7.546875 128.785156 L 7.566406 128.738281 L 7.585938 128.683594 L 7.597656 128.625 L 7.601562 128.5625 L 7.605469 128.496094 L 7.605469 128.425781 L 7.601562 128.40625 L 7.601562 128.371094 L 7.597656 128.355469 L 7.597656 128.335938 L 7.59375 128.320312 L 7.589844 128.300781 L 7.589844 128.285156 L 7.585938 128.265625 L 7.582031 128.25 L 7.582031 128.234375 L 7.578125 128.214844 L 7.566406 128.167969 L 7.566406 128.148438 L 8.222656 128.148438 L 8.230469 128.191406 L 8.261719 128.347656 L 8.269531 128.390625 L 8.273438 128.429688 L 8.28125 128.46875 L 8.285156 128.507812 L 8.292969 128.546875 L 8.300781 128.625 L 8.304688 128.667969 L 8.304688 128.707031 L 8.308594 128.75 L 8.3125 128.789062 L 8.3125 128.921875 L 8.316406 128.964844 L 8.3125 129.023438 L 8.3125 129.082031 L 8.308594 129.136719 L 8.300781 129.191406 L 8.296875 129.242188 L 8.285156 129.292969 L 8.277344 129.34375 L 8.253906 129.4375 L 8.238281 129.480469 L 8.222656 129.519531 L 8.203125 129.5625 L 8.183594 129.597656 L 8.160156 129.636719 L 8.113281 129.707031 L 8.058594 129.769531 L 8.027344 129.796875 L 8 129.824219 L 7.964844 129.851562 L 7.929688 129.875 L 7.894531 129.902344 L 7.855469 129.921875 L 7.816406 129.945312 L 7.777344 129.964844 L 7.734375 129.984375 L 7.691406 130 L 7.644531 130.015625 L 7.601562 130.03125 L 7.550781 130.042969 L 7.5 130.058594 L 7.449219 130.066406 L 7.394531 130.078125 L 7.339844 130.085938 L 7.285156 130.097656 L 7.226562 130.101562 L 7.167969 130.109375 L 7.042969 130.117188 L 7.042969 130.152344 L 7.101562 130.1875 L 7.164062 130.222656 L 7.21875 130.257812 L 7.277344 130.296875 L 7.332031 130.332031 L 7.441406 130.410156 L 7.59375 130.527344 L 7.640625 130.570312 L 7.6875 130.609375 L 7.734375 130.65625 L 7.78125 130.699219 L 7.824219 130.746094 L 7.863281 130.792969 L 7.902344 130.84375 L 7.941406 130.890625 L 7.980469 130.945312 L 8.015625 130.996094 L 8.050781 131.050781 L 8.082031 131.109375 L 8.109375 131.167969 L 8.140625 131.226562 L 8.167969 131.285156 L 8.191406 131.347656 L 8.214844 131.414062 L 8.238281 131.476562 L 8.261719 131.542969 L 8.28125 131.613281 L 8.328125 131.824219 L 8.351562 131.980469 L 8.359375 132.058594 L 8.363281 132.140625 L 8.371094 132.222656 L 8.371094 132.308594 Z M 7.582031 132.15625 L 7.582031 132.058594 L 7.574219 131.960938 L 7.566406 131.867188 L 7.554688 131.773438 L 7.535156 131.6875 L 7.515625 131.597656 L 7.492188 131.515625 L 7.464844 131.433594 L 7.402344 131.277344 L 7.363281 131.203125 L 7.277344 131.0625 L 7.234375 130.996094 L 7.1875 130.929688 L 7.140625 130.871094 L 7.089844 130.8125 L 7.035156 130.753906 L 6.925781 130.652344 L 6.867188 130.601562 L 6.808594 130.554688 L 6.75 130.511719 L 6.5625 130.394531 L 6.496094 130.363281 L 6.433594 130.332031 L 6.367188 130.300781 L 6.300781 130.277344 L 6.230469 130.253906 L 6.097656 130.214844 L 5.964844 130.183594 L 5.902344 130.171875 L 5.835938 130.164062 L 5.648438 130.152344 L 5.128906 130.152344 L 5.152344 131.308594 L 5.152344 131.386719 L 5.15625 131.460938 L 5.15625 131.535156 L 5.164062 131.613281 L 5.167969 131.6875 L 5.175781 131.757812 L 5.179688 131.832031 L 5.191406 131.902344 L 5.199219 131.976562 L 5.210938 132.046875 L 5.21875 132.113281 L 5.230469 132.179688 L 5.246094 132.246094 L 5.261719 132.308594 L 5.28125 132.371094 L 5.300781 132.429688 L 5.347656 132.546875 L 5.402344 132.65625 L 5.464844 132.757812 L 5.5 132.804688 L 5.539062 132.851562 L 5.578125 132.894531 L 5.664062 132.972656 L 5.710938 133.011719 L 5.761719 133.042969 L 5.8125 133.078125 L 5.867188 133.105469 L 5.925781 133.132812 L 5.984375 133.15625 L 6.050781 133.175781 L 6.117188 133.191406 L 6.1875 133.207031 L 6.261719 133.214844 L 6.339844 133.222656 L 6.503906 133.230469 L 6.605469 133.226562 L 6.699219 133.21875 L 6.792969 133.207031 L 6.878906 133.1875 L 6.960938 133.160156 L 7.039062 133.128906 L 7.109375 133.09375 L 7.179688 133.054688 L 7.242188 133.007812 L 7.300781 132.953125 L 7.355469 132.894531 L 7.402344 132.832031 L 7.445312 132.765625 L 7.480469 132.691406 L 7.511719 132.613281 L 7.535156 132.53125 L 7.558594 132.445312 L 7.570312 132.355469 L 7.578125 132.257812 Z M 7.582031 132.15625 "/>
<g clip-path="url(#clip1)" clip-rule="nonzero">
<path style=" stroke:none;fill-rule:evenodd;fill:rgb(100%,100%,100%);fill-opacity:1;" d="M 38.609375 279.742188 L 270.992188 279.742188 L 270.992188 9.90625 L 38.609375 9.90625 Z M 38.609375 279.742188 "/>
</g>
<path style="fill:none;stroke-width:0.75;stroke-linecap:round;stroke-linejoin:round;stroke:rgb(0%,0%,0%);stroke-opacity:1;stroke-miterlimit:10;" d="M 38.609375 279.742188 L 32.941406 279.742188 "/>
<path style="fill:none;stroke-width:0.75;stroke-linecap:round;stroke-linejoin:round;stroke:rgb(0%,0%,0%);stroke-opacity:1;stroke-miterlimit:10;" d="M 38.609375 190.289062 L 32.941406 190.289062 "/>
<path style="fill:none;stroke-width:0.75;stroke-linecap:round;stroke-linejoin:round;stroke:rgb(0%,0%,0%);stroke-opacity:1;stroke-miterlimit:10;" d="M 38.609375 100.835938 L 32.941406 100.835938 "/>
<path style="fill:none;stroke-width:0.75;stroke-linecap:round;stroke-linejoin:round;stroke:rgb(0%,0%,0%);stroke-opacity:1;stroke-miterlimit:10;" d="M 38.609375 11.382812 L 32.941406 11.382812 "/>
<path style=" stroke:none;fill-rule:evenodd;fill:rgb(0%,0%,0%);fill-opacity:1;" d="M 18.890625 279.742188 L 18.886719 279.929688 L 18.882812 280.109375 L 18.871094 280.285156 L 18.859375 280.453125 L 18.84375 280.617188 L 18.824219 280.777344 L 18.800781 280.925781 L 18.773438 281.074219 L 18.742188 281.210938 L 18.707031 281.34375 L 18.667969 281.472656 L 18.628906 281.59375 L 18.585938 281.710938 L 18.542969 281.824219 L 18.496094 281.929688 L 18.445312 282.035156 L 18.390625 282.132812 L 18.335938 282.222656 L 18.277344 282.3125 L 18.214844 282.394531 L 18.152344 282.472656 L 18.085938 282.546875 L 18.019531 282.613281 L 17.949219 282.675781 L 17.875 282.738281 L 17.800781 282.792969 L 17.726562 282.84375 L 17.648438 282.886719 L 17.566406 282.929688 L 17.484375 282.96875 L 17.398438 283 L 17.226562 283.054688 L 17.136719 283.078125 L 17.046875 283.097656 L 16.957031 283.113281 L 16.863281 283.125 L 16.773438 283.132812 L 16.679688 283.136719 L 16.582031 283.140625 L 16.488281 283.136719 L 16.390625 283.132812 L 16.300781 283.125 L 16.207031 283.113281 L 16.117188 283.097656 L 16.027344 283.078125 L 15.9375 283.054688 L 15.765625 283 L 15.683594 282.96875 L 15.601562 282.929688 L 15.519531 282.886719 L 15.441406 282.84375 L 15.367188 282.792969 L 15.292969 282.738281 L 15.152344 282.613281 L 15.085938 282.546875 L 15.019531 282.472656 L 14.957031 282.394531 L 14.898438 282.3125 L 14.839844 282.226562 L 14.785156 282.132812 L 14.734375 282.035156 L 14.683594 281.933594 L 14.636719 281.828125 L 14.59375 281.714844 L 14.550781 281.597656 L 14.511719 281.476562 L 14.472656 281.351562 L 14.410156 281.078125 L 14.363281 280.78125 L 14.34375 280.621094 L 14.328125 280.457031 L 14.316406 280.289062 L 14.308594 280.113281 L 14.300781 279.929688 L 14.300781 279.546875 L 14.308594 279.355469 L 14.316406 279.175781 L 14.328125 279 L 14.34375 278.828125 L 14.363281 278.667969 L 14.386719 278.515625 L 14.410156 278.367188 L 14.441406 278.226562 L 14.472656 278.09375 L 14.511719 277.964844 L 14.550781 277.839844 L 14.59375 277.722656 L 14.636719 277.609375 L 14.683594 277.503906 L 14.734375 277.402344 L 14.789062 277.304688 L 14.84375 277.210938 L 14.960938 277.046875 L 15.023438 276.972656 L 15.089844 276.898438 L 15.15625 276.835938 L 15.226562 276.773438 L 15.296875 276.714844 L 15.371094 276.664062 L 15.449219 276.617188 L 15.527344 276.574219 L 15.609375 276.535156 L 15.691406 276.503906 L 15.777344 276.472656 L 15.863281 276.445312 L 15.953125 276.421875 L 16.132812 276.382812 L 16.226562 276.367188 L 16.414062 276.351562 L 16.511719 276.34375 L 16.707031 276.34375 L 16.796875 276.351562 L 16.890625 276.359375 L 16.980469 276.367188 L 17.070312 276.382812 L 17.242188 276.421875 L 17.328125 276.445312 L 17.414062 276.472656 L 17.578125 276.535156 L 17.660156 276.574219 L 17.738281 276.617188 L 17.8125 276.664062 L 17.886719 276.714844 L 17.957031 276.773438 L 18.027344 276.835938 L 18.09375 276.898438 L 18.160156 276.972656 L 18.222656 277.046875 L 18.285156 277.128906 L 18.34375 277.210938 L 18.398438 277.304688 L 18.449219 277.402344 L 18.5 277.503906 L 18.546875 277.609375 L 18.59375 277.722656 L 18.632812 277.839844 L 18.675781 277.964844 L 18.710938 278.09375 L 18.746094 278.226562 L 18.773438 278.367188 L 18.800781 278.515625 L 18.824219 278.667969 L 18.84375 278.828125 L 18.859375 279 L 18.875 279.175781 L 18.882812 279.355469 L 18.886719 279.546875 Z M 18.03125 279.742188 L 18.03125 279.585938 L 18.027344 279.4375 L 18.023438 279.292969 L 18.007812 279.019531 L 17.984375 278.769531 L 17.972656 278.652344 L 17.957031 278.539062 L 17.9375 278.433594 L 17.917969 278.332031 L 17.898438 278.234375 L 17.875 278.136719 L 17.847656 278.046875 L 17.792969 277.882812 L 17.761719 277.804688 L 17.730469 277.730469 L 17.695312 277.664062 L 17.625 277.539062 L 17.585938 277.480469 L 17.5 277.378906 L 17.457031 277.332031 L 17.410156 277.289062 L 17.363281 277.25 L 17.316406 277.21875 L 17.265625 277.1875 L 17.15625 277.132812 L 17.046875 277.09375 L 16.988281 277.074219 L 16.929688 277.0625 L 16.867188 277.046875 L 16.808594 277.039062 L 16.742188 277.03125 L 16.679688 277.027344 L 16.539062 277.027344 L 16.472656 277.03125 L 16.339844 277.046875 L 16.277344 277.0625 L 16.214844 277.074219 L 16.152344 277.09375 L 16.09375 277.113281 L 16.039062 277.132812 L 15.929688 277.1875 L 15.878906 277.21875 L 15.828125 277.253906 L 15.777344 277.292969 L 15.730469 277.335938 L 15.6875 277.382812 L 15.601562 277.484375 L 15.5625 277.542969 L 15.523438 277.605469 L 15.488281 277.667969 L 15.453125 277.738281 L 15.421875 277.808594 L 15.390625 277.886719 L 15.363281 277.96875 L 15.335938 278.054688 L 15.3125 278.144531 L 15.289062 278.238281 L 15.265625 278.335938 L 15.246094 278.4375 L 15.214844 278.65625 L 15.199219 278.773438 L 15.175781 279.023438 L 15.167969 279.15625 L 15.160156 279.296875 L 15.15625 279.4375 L 15.152344 279.585938 L 15.152344 279.890625 L 15.15625 280.035156 L 15.160156 280.175781 L 15.167969 280.3125 L 15.175781 280.441406 L 15.1875 280.566406 L 15.199219 280.6875 L 15.214844 280.804688 L 15.246094 281.023438 L 15.265625 281.125 L 15.289062 281.222656 L 15.3125 281.316406 L 15.339844 281.40625 L 15.367188 281.492188 L 15.394531 281.574219 L 15.425781 281.652344 L 15.457031 281.726562 L 15.527344 281.859375 L 15.566406 281.921875 L 15.605469 281.980469 L 15.648438 282.035156 L 15.691406 282.085938 L 15.734375 282.132812 L 15.78125 282.175781 L 15.828125 282.214844 L 15.878906 282.253906 L 15.929688 282.285156 L 15.984375 282.316406 L 16.09375 282.363281 L 16.148438 282.382812 L 16.207031 282.402344 L 16.269531 282.417969 L 16.332031 282.429688 L 16.457031 282.445312 L 16.523438 282.449219 L 16.59375 282.453125 L 16.660156 282.449219 L 16.722656 282.445312 L 16.847656 282.429688 L 16.910156 282.417969 L 16.96875 282.402344 L 17.027344 282.382812 L 17.082031 282.363281 L 17.191406 282.316406 L 17.246094 282.285156 L 17.296875 282.253906 L 17.34375 282.214844 L 17.394531 282.175781 L 17.484375 282.085938 L 17.523438 282.035156 L 17.566406 281.980469 L 17.605469 281.921875 L 17.640625 281.859375 L 17.679688 281.792969 L 17.714844 281.726562 L 17.746094 281.652344 L 17.777344 281.574219 L 17.808594 281.492188 L 17.835938 281.40625 L 17.859375 281.316406 L 17.886719 281.222656 L 17.90625 281.125 L 17.929688 281.023438 L 17.949219 280.914062 L 17.964844 280.804688 L 17.980469 280.6875 L 17.996094 280.566406 L 18.003906 280.441406 L 18.015625 280.3125 L 18.023438 280.175781 L 18.027344 280.035156 L 18.03125 279.890625 Z M 18.03125 279.742188 "/>
<path style=" stroke:none;fill-rule:evenodd;fill:rgb(0%,0%,0%);fill-opacity:1;" d="M 20.140625 283.046875 L 20.140625 282.019531 L 21.054688 282.019531 L 21.054688 283.046875 Z M 20.140625 283.046875 "/>
<path style=" stroke:none;fill-rule:evenodd;fill:rgb(0%,0%,0%);fill-opacity:1;" d="M 26.894531 279.742188 L 26.894531 279.929688 L 26.886719 280.109375 L 26.878906 280.285156 L 26.867188 280.453125 L 26.851562 280.617188 L 26.828125 280.777344 L 26.804688 280.925781 L 26.777344 281.074219 L 26.746094 281.210938 L 26.710938 281.34375 L 26.675781 281.472656 L 26.636719 281.59375 L 26.59375 281.710938 L 26.546875 281.824219 L 26.5 281.929688 L 26.449219 282.035156 L 26.398438 282.132812 L 26.28125 282.3125 L 26.21875 282.394531 L 26.15625 282.472656 L 26.09375 282.546875 L 26.023438 282.613281 L 25.882812 282.738281 L 25.808594 282.792969 L 25.730469 282.84375 L 25.574219 282.929688 L 25.488281 282.96875 L 25.402344 283 L 25.230469 283.054688 L 25.144531 283.078125 L 25.054688 283.097656 L 24.960938 283.113281 L 24.871094 283.125 L 24.777344 283.132812 L 24.589844 283.140625 L 24.492188 283.136719 L 24.398438 283.132812 L 24.304688 283.125 L 24.214844 283.113281 L 24.121094 283.097656 L 24.035156 283.078125 L 23.945312 283.054688 L 23.773438 283 L 23.6875 282.96875 L 23.605469 282.929688 L 23.449219 282.84375 L 23.371094 282.792969 L 23.300781 282.738281 L 23.226562 282.675781 L 23.15625 282.613281 L 23.089844 282.546875 L 23.027344 282.472656 L 22.960938 282.394531 L 22.902344 282.3125 L 22.847656 282.226562 L 22.792969 282.132812 L 22.738281 282.035156 L 22.691406 281.933594 L 22.644531 281.828125 L 22.597656 281.714844 L 22.554688 281.597656 L 22.515625 281.476562 L 22.480469 281.351562 L 22.445312 281.214844 L 22.417969 281.078125 L 22.390625 280.929688 L 22.367188 280.78125 L 22.351562 280.621094 L 22.335938 280.457031 L 22.320312 280.289062 L 22.3125 280.113281 L 22.308594 279.929688 L 22.304688 279.742188 L 22.308594 279.546875 L 22.3125 279.355469 L 22.320312 279.175781 L 22.335938 279 L 22.351562 278.828125 L 22.367188 278.667969 L 22.390625 278.515625 L 22.417969 278.367188 L 22.445312 278.226562 L 22.480469 278.09375 L 22.515625 277.964844 L 22.554688 277.839844 L 22.597656 277.722656 L 22.644531 277.609375 L 22.691406 277.503906 L 22.742188 277.402344 L 22.792969 277.304688 L 22.847656 277.210938 L 22.90625 277.128906 L 22.96875 277.046875 L 23.09375 276.898438 L 23.234375 276.773438 L 23.304688 276.714844 L 23.378906 276.664062 L 23.457031 276.617188 L 23.535156 276.574219 L 23.617188 276.535156 L 23.699219 276.503906 L 23.785156 276.472656 L 23.871094 276.445312 L 23.957031 276.421875 L 24.046875 276.402344 L 24.140625 276.382812 L 24.230469 276.367188 L 24.324219 276.359375 L 24.519531 276.34375 L 24.710938 276.34375 L 24.804688 276.351562 L 24.894531 276.359375 L 24.988281 276.367188 L 25.074219 276.382812 L 25.164062 276.402344 L 25.25 276.421875 L 25.335938 276.445312 L 25.421875 276.472656 L 25.585938 276.535156 L 25.664062 276.574219 L 25.742188 276.617188 L 25.820312 276.664062 L 25.894531 276.714844 L 25.964844 276.773438 L 26.035156 276.835938 L 26.101562 276.898438 L 26.167969 276.972656 L 26.230469 277.046875 L 26.347656 277.210938 L 26.402344 277.304688 L 26.457031 277.402344 L 26.507812 277.503906 L 26.554688 277.609375 L 26.597656 277.722656 L 26.640625 277.839844 L 26.679688 277.964844 L 26.71875 278.09375 L 26.75 278.226562 L 26.78125 278.367188 L 26.808594 278.515625 L 26.832031 278.667969 L 26.851562 278.828125 L 26.867188 279 L 26.878906 279.175781 L 26.886719 279.355469 L 26.894531 279.546875 Z M 26.039062 279.742188 L 26.035156 279.585938 L 26.035156 279.4375 L 26.027344 279.292969 L 26.023438 279.15625 L 26.015625 279.019531 L 25.992188 278.769531 L 25.976562 278.652344 L 25.960938 278.539062 L 25.945312 278.433594 L 25.925781 278.332031 L 25.878906 278.136719 L 25.855469 278.046875 L 25.800781 277.882812 L 25.769531 277.804688 L 25.738281 277.730469 L 25.703125 277.664062 L 25.667969 277.601562 L 25.628906 277.539062 L 25.589844 277.480469 L 25.550781 277.429688 L 25.507812 277.378906 L 25.464844 277.332031 L 25.417969 277.289062 L 25.371094 277.25 L 25.269531 277.1875 L 25.21875 277.160156 L 25.164062 277.132812 L 25.054688 277.09375 L 24.996094 277.074219 L 24.9375 277.0625 L 24.875 277.046875 L 24.75 277.03125 L 24.683594 277.027344 L 24.546875 277.027344 L 24.476562 277.03125 L 24.410156 277.039062 L 24.347656 277.046875 L 24.28125 277.0625 L 24.21875 277.074219 L 24.042969 277.132812 L 23.988281 277.160156 L 23.9375 277.1875 L 23.882812 277.21875 L 23.832031 277.253906 L 23.785156 277.292969 L 23.738281 277.335938 L 23.691406 277.382812 L 23.648438 277.433594 L 23.609375 277.484375 L 23.566406 277.542969 L 23.496094 277.667969 L 23.460938 277.738281 L 23.429688 277.808594 L 23.398438 277.886719 L 23.371094 277.96875 L 23.34375 278.054688 L 23.316406 278.144531 L 23.292969 278.238281 L 23.273438 278.335938 L 23.253906 278.4375 L 23.234375 278.546875 L 23.21875 278.65625 L 23.207031 278.773438 L 23.191406 278.898438 L 23.183594 279.023438 L 23.175781 279.15625 L 23.167969 279.296875 L 23.164062 279.4375 L 23.160156 279.585938 L 23.160156 279.890625 L 23.164062 280.035156 L 23.167969 280.175781 L 23.175781 280.3125 L 23.183594 280.441406 L 23.191406 280.566406 L 23.207031 280.6875 L 23.21875 280.804688 L 23.234375 280.914062 L 23.253906 281.023438 L 23.273438 281.125 L 23.296875 281.222656 L 23.320312 281.316406 L 23.34375 281.40625 L 23.371094 281.492188 L 23.402344 281.574219 L 23.433594 281.652344 L 23.464844 281.726562 L 23.535156 281.859375 L 23.574219 281.921875 L 23.613281 281.980469 L 23.652344 282.035156 L 23.699219 282.085938 L 23.742188 282.132812 L 23.789062 282.175781 L 23.835938 282.214844 L 23.886719 282.253906 L 23.988281 282.316406 L 24.097656 282.363281 L 24.214844 282.402344 L 24.273438 282.417969 L 24.335938 282.429688 L 24.398438 282.4375 L 24.464844 282.445312 L 24.597656 282.453125 L 24.730469 282.445312 L 24.855469 282.429688 L 24.914062 282.417969 L 24.972656 282.402344 L 25.089844 282.363281 L 25.199219 282.316406 L 25.300781 282.253906 L 25.351562 282.214844 L 25.398438 282.175781 L 25.445312 282.132812 L 25.488281 282.085938 L 25.53125 282.035156 L 25.570312 281.980469 L 25.609375 281.921875 L 25.648438 281.859375 L 25.71875 281.726562 L 25.753906 281.652344 L 25.785156 281.574219 L 25.8125 281.492188 L 25.839844 281.40625 L 25.867188 281.316406 L 25.890625 281.222656 L 25.914062 281.125 L 25.933594 281.023438 L 25.972656 280.804688 L 25.988281 280.6875 L 26 280.566406 L 26.011719 280.441406 L 26.019531 280.3125 L 26.027344 280.175781 L 26.035156 280.035156 L 26.035156 279.890625 Z M 26.039062 279.742188 "/>
<path style=" stroke:none;fill-rule:evenodd;fill:rgb(0%,0%,0%);fill-opacity:1;" d="M 18.890625 190.289062 L 18.886719 190.476562 L 18.882812 190.65625 L 18.871094 190.832031 L 18.859375 191 L 18.84375 191.164062 L 18.824219 191.324219 L 18.800781 191.472656 L 18.773438 191.617188 L 18.742188 191.757812 L 18.707031 191.890625 L 18.667969 192.019531 L 18.628906 192.140625 L 18.585938 192.257812 L 18.542969 192.371094 L 18.496094 192.476562 L 18.445312 192.582031 L 18.390625 192.679688 L 18.335938 192.769531 L 18.277344 192.859375 L 18.214844 192.941406 L 18.152344 193.019531 L 18.085938 193.09375 L 18.019531 193.160156 L 17.949219 193.222656 L 17.875 193.285156 L 17.800781 193.339844 L 17.726562 193.390625 L 17.648438 193.433594 L 17.566406 193.476562 L 17.484375 193.511719 L 17.398438 193.546875 L 17.226562 193.601562 L 17.136719 193.625 L 17.046875 193.644531 L 16.957031 193.660156 L 16.863281 193.671875 L 16.773438 193.679688 L 16.679688 193.683594 L 16.582031 193.6875 L 16.488281 193.683594 L 16.390625 193.679688 L 16.300781 193.671875 L 16.207031 193.660156 L 16.117188 193.644531 L 16.027344 193.625 L 15.9375 193.601562 L 15.765625 193.546875 L 15.601562 193.476562 L 15.519531 193.433594 L 15.441406 193.390625 L 15.367188 193.339844 L 15.292969 193.285156 L 15.152344 193.160156 L 15.085938 193.09375 L 15.019531 193.019531 L 14.957031 192.941406 L 14.898438 192.859375 L 14.839844 192.773438 L 14.785156 192.679688 L 14.734375 192.582031 L 14.683594 192.480469 L 14.636719 192.375 L 14.59375 192.261719 L 14.550781 192.144531 L 14.511719 192.023438 L 14.472656 191.894531 L 14.441406 191.761719 L 14.410156 191.625 L 14.363281 191.328125 L 14.34375 191.167969 L 14.328125 191.003906 L 14.316406 190.835938 L 14.308594 190.660156 L 14.300781 190.476562 L 14.300781 190.09375 L 14.308594 189.902344 L 14.316406 189.722656 L 14.328125 189.546875 L 14.34375 189.375 L 14.363281 189.214844 L 14.386719 189.0625 L 14.410156 188.914062 L 14.441406 188.773438 L 14.472656 188.636719 L 14.550781 188.386719 L 14.59375 188.269531 L 14.636719 188.15625 L 14.683594 188.050781 L 14.734375 187.945312 L 14.84375 187.757812 L 14.902344 187.671875 L 14.960938 187.59375 L 15.023438 187.519531 L 15.089844 187.445312 L 15.15625 187.382812 L 15.226562 187.320312 L 15.296875 187.261719 L 15.371094 187.210938 L 15.449219 187.164062 L 15.527344 187.121094 L 15.609375 187.082031 L 15.691406 187.050781 L 15.777344 187.019531 L 15.863281 186.992188 L 15.953125 186.96875 L 16.132812 186.929688 L 16.226562 186.914062 L 16.414062 186.898438 L 16.511719 186.890625 L 16.707031 186.890625 L 16.796875 186.898438 L 16.890625 186.90625 L 16.980469 186.914062 L 17.070312 186.929688 L 17.242188 186.96875 L 17.328125 186.992188 L 17.414062 187.019531 L 17.578125 187.082031 L 17.660156 187.121094 L 17.738281 187.164062 L 17.8125 187.210938 L 17.886719 187.261719 L 17.957031 187.320312 L 18.027344 187.382812 L 18.09375 187.445312 L 18.160156 187.519531 L 18.222656 187.59375 L 18.285156 187.671875 L 18.34375 187.757812 L 18.398438 187.851562 L 18.449219 187.945312 L 18.5 188.050781 L 18.546875 188.15625 L 18.59375 188.269531 L 18.632812 188.386719 L 18.675781 188.511719 L 18.710938 188.636719 L 18.746094 188.773438 L 18.773438 188.914062 L 18.800781 189.0625 L 18.824219 189.214844 L 18.84375 189.375 L 18.859375 189.546875 L 18.875 189.722656 L 18.882812 189.902344 L 18.886719 190.09375 Z M 18.03125 190.289062 L 18.03125 190.132812 L 18.027344 189.984375 L 18.023438 189.839844 L 18.007812 189.566406 L 17.984375 189.316406 L 17.972656 189.199219 L 17.957031 189.085938 L 17.9375 188.980469 L 17.917969 188.878906 L 17.898438 188.78125 L 17.875 188.683594 L 17.847656 188.59375 L 17.820312 188.507812 L 17.792969 188.429688 L 17.761719 188.351562 L 17.730469 188.277344 L 17.660156 188.144531 L 17.625 188.085938 L 17.585938 188.027344 L 17.5 187.925781 L 17.457031 187.878906 L 17.410156 187.835938 L 17.363281 187.796875 L 17.316406 187.765625 L 17.265625 187.734375 L 17.15625 187.679688 L 17.046875 187.640625 L 16.988281 187.621094 L 16.929688 187.605469 L 16.867188 187.59375 L 16.808594 187.585938 L 16.742188 187.578125 L 16.679688 187.574219 L 16.539062 187.574219 L 16.472656 187.578125 L 16.339844 187.59375 L 16.277344 187.605469 L 16.214844 187.621094 L 16.152344 187.640625 L 16.09375 187.660156 L 16.039062 187.679688 L 15.929688 187.734375 L 15.878906 187.765625 L 15.828125 187.800781 L 15.777344 187.839844 L 15.730469 187.882812 L 15.6875 187.929688 L 15.601562 188.03125 L 15.5625 188.089844 L 15.523438 188.152344 L 15.488281 188.214844 L 15.453125 188.285156 L 15.421875 188.355469 L 15.390625 188.433594 L 15.363281 188.515625 L 15.335938 188.601562 L 15.3125 188.691406 L 15.289062 188.785156 L 15.265625 188.882812 L 15.246094 188.984375 L 15.214844 189.203125 L 15.199219 189.320312 L 15.175781 189.570312 L 15.167969 189.703125 L 15.160156 189.84375 L 15.15625 189.984375 L 15.152344 190.132812 L 15.152344 190.4375 L 15.15625 190.582031 L 15.160156 190.722656 L 15.167969 190.859375 L 15.175781 190.988281 L 15.1875 191.113281 L 15.199219 191.234375 L 15.214844 191.351562 L 15.230469 191.460938 L 15.246094 191.566406 L 15.265625 191.671875 L 15.289062 191.769531 L 15.3125 191.863281 L 15.339844 191.953125 L 15.367188 192.039062 L 15.394531 192.121094 L 15.425781 192.199219 L 15.457031 192.273438 L 15.527344 192.40625 L 15.566406 192.46875 L 15.605469 192.527344 L 15.648438 192.582031 L 15.691406 192.628906 L 15.734375 192.679688 L 15.78125 192.722656 L 15.828125 192.761719 L 15.929688 192.832031 L 15.984375 192.863281 L 16.09375 192.910156 L 16.148438 192.929688 L 16.207031 192.949219 L 16.269531 192.964844 L 16.332031 192.976562 L 16.457031 192.992188 L 16.523438 192.996094 L 16.660156 192.996094 L 16.722656 192.992188 L 16.847656 192.976562 L 16.910156 192.964844 L 16.96875 192.949219 L 17.027344 192.929688 L 17.082031 192.910156 L 17.191406 192.863281 L 17.246094 192.832031 L 17.296875 192.796875 L 17.34375 192.761719 L 17.394531 192.722656 L 17.4375 192.679688 L 17.484375 192.628906 L 17.523438 192.582031 L 17.566406 192.527344 L 17.605469 192.46875 L 17.640625 192.40625 L 17.679688 192.339844 L 17.714844 192.273438 L 17.746094 192.199219 L 17.777344 192.121094 L 17.808594 192.039062 L 17.835938 191.953125 L 17.859375 191.863281 L 17.886719 191.769531 L 17.90625 191.671875 L 17.929688 191.566406 L 17.949219 191.460938 L 17.964844 191.351562 L 17.980469 191.234375 L 17.996094 191.113281 L 18.003906 190.988281 L 18.015625 190.859375 L 18.023438 190.722656 L 18.027344 190.582031 L 18.03125 190.4375 Z M 18.03125 190.289062 "/>
<path style=" stroke:none;fill-rule:evenodd;fill:rgb(0%,0%,0%);fill-opacity:1;" d="M 20.140625 193.59375 L 20.140625 192.566406 L 21.054688 192.566406 L 21.054688 193.59375 Z M 20.140625 193.59375 "/>
<path style=" stroke:none;fill-rule:evenodd;fill:rgb(0%,0%,0%);fill-opacity:1;" d="M 22.414062 193.59375 L 22.414062 192.996094 L 22.566406 192.679688 L 22.621094 192.582031 L 22.679688 192.480469 L 22.738281 192.386719 L 22.800781 192.292969 L 22.863281 192.203125 L 22.996094 192.03125 L 23.207031 191.785156 L 23.277344 191.707031 L 23.351562 191.632812 L 23.421875 191.554688 L 23.496094 191.484375 L 23.570312 191.410156 L 23.644531 191.339844 L 23.722656 191.273438 L 23.796875 191.203125 L 23.875 191.136719 L 23.949219 191.070312 L 24.097656 190.945312 L 24.175781 190.882812 L 24.324219 190.757812 L 24.546875 190.582031 L 24.617188 190.523438 L 24.691406 190.464844 L 24.761719 190.40625 L 24.828125 190.347656 L 24.894531 190.292969 L 24.960938 190.234375 L 25.148438 190.058594 L 25.207031 190 L 25.316406 189.882812 L 25.367188 189.820312 L 25.417969 189.761719 L 25.464844 189.699219 L 25.59375 189.511719 L 25.664062 189.386719 L 25.699219 189.320312 L 25.726562 189.25 L 25.75 189.179688 L 25.769531 189.109375 L 25.789062 189.035156 L 25.800781 188.960938 L 25.808594 188.886719 L 25.816406 188.808594 L 25.816406 188.671875 L 25.8125 188.617188 L 25.804688 188.515625 L 25.796875 188.464844 L 25.785156 188.414062 L 25.777344 188.367188 L 25.761719 188.324219 L 25.75 188.277344 L 25.734375 188.234375 L 25.714844 188.191406 L 25.675781 188.113281 L 25.652344 188.074219 L 25.605469 188.003906 L 25.550781 187.933594 L 25.519531 187.902344 L 25.457031 187.847656 L 25.386719 187.792969 L 25.351562 187.769531 L 25.3125 187.746094 L 25.234375 187.707031 L 25.191406 187.691406 L 25.148438 187.671875 L 25.105469 187.660156 L 25.058594 187.644531 L 25.015625 187.632812 L 24.921875 187.609375 L 24.871094 187.601562 L 24.820312 187.597656 L 24.769531 187.589844 L 24.71875 187.585938 L 24.667969 187.585938 L 24.613281 187.582031 L 24.5625 187.585938 L 24.511719 187.585938 L 24.464844 187.589844 L 24.414062 187.59375 L 24.273438 187.617188 L 24.132812 187.652344 L 24.046875 187.683594 L 24.007812 187.703125 L 23.964844 187.722656 L 23.925781 187.742188 L 23.886719 187.765625 L 23.847656 187.785156 L 23.8125 187.8125 L 23.777344 187.835938 L 23.742188 187.863281 L 23.707031 187.894531 L 23.675781 187.925781 L 23.640625 187.957031 L 23.613281 187.988281 L 23.582031 188.023438 L 23.554688 188.058594 L 23.527344 188.097656 L 23.503906 188.136719 L 23.476562 188.175781 L 23.453125 188.214844 L 23.414062 188.300781 L 23.398438 188.347656 L 23.378906 188.394531 L 23.367188 188.441406 L 23.351562 188.488281 L 23.339844 188.539062 L 23.332031 188.589844 L 23.320312 188.644531 L 23.3125 188.699219 L 22.453125 188.621094 L 22.460938 188.550781 L 22.472656 188.480469 L 22.503906 188.339844 L 22.542969 188.207031 L 22.566406 188.140625 L 22.589844 188.078125 L 22.617188 188.011719 L 22.679688 187.886719 L 22.75 187.769531 L 22.792969 187.710938 L 22.832031 187.65625 L 22.875 187.601562 L 22.921875 187.550781 L 22.972656 187.496094 L 23.074219 187.402344 L 23.128906 187.355469 L 23.1875 187.308594 L 23.246094 187.265625 L 23.308594 187.226562 L 23.375 187.1875 L 23.507812 187.117188 L 23.578125 187.085938 L 23.652344 187.054688 L 23.726562 187.027344 L 23.804688 187 L 23.886719 186.976562 L 23.96875 186.957031 L 24.054688 186.9375 L 24.140625 186.925781 L 24.230469 186.910156 L 24.320312 186.902344 L 24.417969 186.894531 L 24.511719 186.890625 L 24.710938 186.890625 L 24.804688 186.894531 L 24.898438 186.902344 L 25.078125 186.917969 L 25.25 186.949219 L 25.332031 186.964844 L 25.410156 186.984375 L 25.566406 187.03125 L 25.707031 187.085938 L 25.777344 187.117188 L 25.84375 187.152344 L 25.90625 187.1875 L 25.96875 187.226562 L 26.027344 187.265625 L 26.082031 187.308594 L 26.136719 187.355469 L 26.238281 187.449219 L 26.285156 187.5 L 26.371094 187.609375 L 26.410156 187.667969 L 26.449219 187.730469 L 26.484375 187.789062 L 26.515625 187.855469 L 26.570312 187.988281 L 26.59375 188.058594 L 26.617188 188.132812 L 26.632812 188.207031 L 26.648438 188.285156 L 26.660156 188.363281 L 26.671875 188.445312 L 26.679688 188.527344 L 26.683594 188.613281 L 26.683594 188.765625 L 26.679688 188.832031 L 26.671875 188.894531 L 26.664062 188.960938 L 26.640625 189.085938 L 26.625 189.148438 L 26.585938 189.273438 L 26.539062 189.390625 L 26.511719 189.453125 L 26.484375 189.511719 L 26.457031 189.566406 L 26.425781 189.625 L 26.390625 189.683594 L 26.285156 189.847656 L 26.242188 189.902344 L 26.164062 190.011719 L 26.121094 190.066406 L 26.074219 190.117188 L 26.03125 190.171875 L 25.984375 190.222656 L 25.9375 190.277344 L 25.785156 190.429688 L 25.730469 190.480469 L 25.679688 190.53125 L 25.625 190.582031 L 25.570312 190.628906 L 25.460938 190.730469 L 25.40625 190.777344 L 25.347656 190.828125 L 25.292969 190.878906 L 25.234375 190.925781 L 25.179688 190.972656 L 25.121094 191.023438 L 25.0625 191.070312 L 25.007812 191.117188 L 24.949219 191.164062 L 24.890625 191.214844 L 24.832031 191.261719 L 24.777344 191.308594 L 24.601562 191.449219 L 24.542969 191.5 L 24.214844 191.78125 L 24.164062 191.828125 L 24.109375 191.878906 L 24.0625 191.925781 L 24.011719 191.972656 L 23.964844 192.023438 L 23.871094 192.117188 L 23.824219 192.167969 L 23.78125 192.21875 L 23.738281 192.265625 L 23.695312 192.316406 L 23.65625 192.363281 L 23.578125 192.464844 L 23.542969 192.511719 L 23.507812 192.5625 L 23.476562 192.613281 L 23.445312 192.667969 L 23.390625 192.769531 L 23.367188 192.824219 L 23.34375 192.875 L 26.789062 192.875 L 26.789062 193.59375 Z M 22.414062 193.59375 "/>
<path style=" stroke:none;fill-rule:evenodd;fill:rgb(0%,0%,0%);fill-opacity:1;" d="M 18.890625 100.835938 L 18.886719 101.023438 L 18.882812 101.203125 L 18.871094 101.378906 L 18.859375 101.546875 L 18.84375 101.710938 L 18.824219 101.871094 L 18.800781 102.019531 L 18.773438 102.164062 L 18.742188 102.304688 L 18.707031 102.4375 L 18.667969 102.566406 L 18.628906 102.6875 L 18.585938 102.804688 L 18.542969 102.917969 L 18.496094 103.023438 L 18.445312 103.125 L 18.390625 103.226562 L 18.335938 103.316406 L 18.277344 103.40625 L 18.214844 103.488281 L 18.152344 103.566406 L 18.085938 103.640625 L 18.019531 103.707031 L 17.949219 103.769531 L 17.875 103.832031 L 17.800781 103.886719 L 17.726562 103.9375 L 17.648438 103.980469 L 17.566406 104.023438 L 17.484375 104.058594 L 17.398438 104.09375 L 17.226562 104.148438 L 17.136719 104.171875 L 17.046875 104.191406 L 16.957031 104.207031 L 16.863281 104.21875 L 16.773438 104.226562 L 16.679688 104.230469 L 16.582031 104.234375 L 16.488281 104.230469 L 16.390625 104.226562 L 16.300781 104.21875 L 16.207031 104.207031 L 16.117188 104.191406 L 16.027344 104.171875 L 15.9375 104.148438 L 15.765625 104.09375 L 15.601562 104.023438 L 15.519531 103.980469 L 15.441406 103.9375 L 15.367188 103.886719 L 15.292969 103.832031 L 15.152344 103.707031 L 15.085938 103.640625 L 15.019531 103.566406 L 14.957031 103.488281 L 14.898438 103.40625 L 14.839844 103.320312 L 14.785156 103.226562 L 14.734375 103.128906 L 14.683594 103.027344 L 14.636719 102.921875 L 14.59375 102.808594 L 14.550781 102.691406 L 14.511719 102.570312 L 14.472656 102.441406 L 14.441406 102.308594 L 14.410156 102.171875 L 14.363281 101.875 L 14.34375 101.714844 L 14.328125 101.550781 L 14.316406 101.382812 L 14.308594 101.207031 L 14.300781 101.023438 L 14.300781 100.640625 L 14.308594 100.449219 L 14.316406 100.265625 L 14.328125 100.09375 L 14.34375 99.921875 L 14.363281 99.761719 L 14.386719 99.609375 L 14.410156 99.460938 L 14.441406 99.320312 L 14.472656 99.183594 L 14.550781 98.933594 L 14.59375 98.816406 L 14.636719 98.703125 L 14.683594 98.597656 L 14.734375 98.492188 L 14.84375 98.304688 L 14.902344 98.21875 L 14.960938 98.140625 L 15.023438 98.066406 L 15.089844 97.992188 L 15.15625 97.925781 L 15.296875 97.808594 L 15.371094 97.757812 L 15.449219 97.710938 L 15.527344 97.667969 L 15.609375 97.628906 L 15.691406 97.597656 L 15.777344 97.566406 L 15.863281 97.539062 L 15.953125 97.515625 L 16.132812 97.476562 L 16.226562 97.460938 L 16.320312 97.453125 L 16.414062 97.441406 L 16.511719 97.4375 L 16.707031 97.4375 L 16.796875 97.441406 L 16.890625 97.453125 L 16.980469 97.460938 L 17.070312 97.476562 L 17.242188 97.515625 L 17.328125 97.539062 L 17.414062 97.566406 L 17.578125 97.628906 L 17.660156 97.667969 L 17.738281 97.710938 L 17.8125 97.757812 L 17.886719 97.808594 L 18.027344 97.925781 L 18.09375 97.992188 L 18.160156 98.066406 L 18.222656 98.140625 L 18.285156 98.21875 L 18.34375 98.304688 L 18.398438 98.398438 L 18.449219 98.492188 L 18.5 98.597656 L 18.546875 98.703125 L 18.59375 98.816406 L 18.632812 98.933594 L 18.675781 99.058594 L 18.710938 99.183594 L 18.746094 99.320312 L 18.773438 99.460938 L 18.800781 99.609375 L 18.824219 99.761719 L 18.84375 99.921875 L 18.875 100.265625 L 18.882812 100.449219 L 18.886719 100.640625 Z M 18.03125 100.835938 L 18.03125 100.679688 L 18.027344 100.53125 L 18.023438 100.386719 L 18.007812 100.113281 L 17.984375 99.863281 L 17.972656 99.746094 L 17.957031 99.632812 L 17.9375 99.527344 L 17.898438 99.324219 L 17.875 99.230469 L 17.847656 99.140625 L 17.820312 99.054688 L 17.792969 98.976562 L 17.761719 98.898438 L 17.730469 98.824219 L 17.660156 98.691406 L 17.625 98.632812 L 17.585938 98.574219 L 17.5 98.472656 L 17.457031 98.425781 L 17.410156 98.382812 L 17.363281 98.34375 L 17.316406 98.3125 L 17.265625 98.28125 L 17.15625 98.226562 L 17.046875 98.1875 L 16.988281 98.167969 L 16.929688 98.152344 L 16.867188 98.140625 L 16.808594 98.132812 L 16.742188 98.125 L 16.679688 98.121094 L 16.539062 98.121094 L 16.472656 98.125 L 16.339844 98.140625 L 16.277344 98.152344 L 16.214844 98.167969 L 16.152344 98.1875 L 16.09375 98.207031 L 16.039062 98.226562 L 15.929688 98.28125 L 15.878906 98.3125 L 15.828125 98.347656 L 15.777344 98.386719 L 15.730469 98.429688 L 15.6875 98.476562 L 15.601562 98.578125 L 15.5625 98.636719 L 15.523438 98.699219 L 15.488281 98.761719 L 15.453125 98.832031 L 15.421875 98.902344 L 15.390625 98.980469 L 15.363281 99.0625 L 15.335938 99.148438 L 15.3125 99.238281 L 15.289062 99.332031 L 15.265625 99.429688 L 15.246094 99.53125 L 15.214844 99.75 L 15.199219 99.867188 L 15.175781 100.117188 L 15.167969 100.25 L 15.160156 100.390625 L 15.15625 100.53125 L 15.152344 100.679688 L 15.152344 100.984375 L 15.15625 101.128906 L 15.160156 101.269531 L 15.167969 101.40625 L 15.175781 101.535156 L 15.1875 101.660156 L 15.199219 101.78125 L 15.214844 101.898438 L 15.230469 102.007812 L 15.246094 102.113281 L 15.265625 102.21875 L 15.289062 102.316406 L 15.3125 102.410156 L 15.339844 102.5 L 15.367188 102.585938 L 15.394531 102.667969 L 15.425781 102.746094 L 15.457031 102.820312 L 15.527344 102.953125 L 15.566406 103.015625 L 15.605469 103.074219 L 15.734375 103.226562 L 15.78125 103.269531 L 15.828125 103.308594 L 15.929688 103.378906 L 15.984375 103.410156 L 16.09375 103.457031 L 16.148438 103.476562 L 16.207031 103.496094 L 16.269531 103.511719 L 16.332031 103.523438 L 16.457031 103.539062 L 16.523438 103.542969 L 16.660156 103.542969 L 16.722656 103.539062 L 16.847656 103.523438 L 16.910156 103.511719 L 16.96875 103.496094 L 17.027344 103.476562 L 17.082031 103.457031 L 17.191406 103.410156 L 17.246094 103.378906 L 17.296875 103.34375 L 17.34375 103.308594 L 17.394531 103.269531 L 17.4375 103.226562 L 17.484375 103.175781 L 17.523438 103.125 L 17.566406 103.074219 L 17.605469 103.015625 L 17.640625 102.953125 L 17.679688 102.886719 L 17.714844 102.820312 L 17.746094 102.746094 L 17.777344 102.667969 L 17.808594 102.585938 L 17.835938 102.5 L 17.859375 102.410156 L 17.886719 102.316406 L 17.90625 102.21875 L 17.929688 102.113281 L 17.949219 102.007812 L 17.964844 101.898438 L 17.980469 101.78125 L 17.996094 101.660156 L 18.003906 101.535156 L 18.015625 101.40625 L 18.023438 101.269531 L 18.027344 101.128906 L 18.03125 100.984375 Z M 18.03125 100.835938 "/>
<path style=" stroke:none;fill-rule:evenodd;fill:rgb(0%,0%,0%);fill-opacity:1;" d="M 20.140625 104.140625 L 20.140625 103.113281 L 21.054688 103.113281 L 21.054688 104.140625 Z M 20.140625 104.140625 "/>
<path style=" stroke:none;fill-rule:evenodd;fill:rgb(0%,0%,0%);fill-opacity:1;" d="M 26.0625 102.644531 L 26.0625 104.140625 L 25.265625 104.140625 L 25.265625 102.644531 L 22.152344 102.644531 L 22.152344 101.988281 L 25.175781 97.535156 L 26.0625 97.535156 L 26.0625 101.980469 L 26.988281 101.980469 L 26.988281 102.644531 Z M 25.265625 98.488281 L 25.261719 98.492188 L 25.257812 98.5 L 25.257812 98.503906 L 25.253906 98.511719 L 25.246094 98.523438 L 25.242188 98.53125 L 25.238281 98.542969 L 25.222656 98.566406 L 25.21875 98.582031 L 25.210938 98.59375 L 25.203125 98.609375 L 25.195312 98.621094 L 25.1875 98.636719 L 25.175781 98.652344 L 25.152344 98.699219 L 25.140625 98.714844 L 25.125 98.746094 L 25.113281 98.765625 L 25.105469 98.78125 L 25.09375 98.800781 L 25.085938 98.816406 L 25.074219 98.832031 L 25.066406 98.851562 L 25.054688 98.867188 L 25.042969 98.886719 L 25.035156 98.902344 L 25.023438 98.921875 L 25 98.96875 L 24.988281 98.980469 L 24.980469 98.996094 L 24.949219 99.042969 L 23.257812 101.539062 L 23.253906 101.546875 L 23.246094 101.554688 L 23.242188 101.5625 L 23.234375 101.570312 L 23.230469 101.582031 L 23.222656 101.59375 L 23.214844 101.601562 L 23.207031 101.613281 L 23.195312 101.625 L 23.171875 101.660156 L 23.160156 101.675781 L 23.136719 101.710938 L 23.125 101.722656 L 23.117188 101.738281 L 23.109375 101.75 L 23.097656 101.761719 L 23.089844 101.777344 L 23.078125 101.789062 L 23.0625 101.8125 L 23.050781 101.824219 L 23.042969 101.835938 L 23.03125 101.847656 L 23.023438 101.859375 L 23.015625 101.875 L 23.003906 101.886719 L 22.988281 101.910156 L 22.976562 101.917969 L 22.96875 101.929688 L 22.960938 101.9375 L 22.957031 101.949219 L 22.941406 101.964844 L 22.9375 101.972656 L 22.929688 101.980469 L 25.265625 101.980469 Z M 25.265625 98.488281 "/>
<path style=" stroke:none;fill-rule:evenodd;fill:rgb(0%,0%,0%);fill-opacity:1;" d="M 18.890625 11.382812 L 18.886719 11.570312 L 18.882812 11.75 L 18.871094 11.925781 L 18.859375 12.09375 L 18.84375 12.257812 L 18.824219 12.414062 L 18.800781 12.566406 L 18.773438 12.710938 L 18.742188 12.851562 L 18.707031 12.984375 L 18.667969 13.113281 L 18.628906 13.234375 L 18.585938 13.351562 L 18.542969 13.464844 L 18.496094 13.570312 L 18.445312 13.671875 L 18.390625 13.769531 L 18.335938 13.863281 L 18.277344 13.953125 L 18.214844 14.035156 L 18.152344 14.113281 L 18.085938 14.1875 L 18.019531 14.253906 L 17.949219 14.316406 L 17.875 14.378906 L 17.800781 14.433594 L 17.726562 14.484375 L 17.648438 14.527344 L 17.566406 14.570312 L 17.484375 14.605469 L 17.398438 14.640625 L 17.226562 14.695312 L 17.136719 14.71875 L 17.046875 14.738281 L 16.957031 14.753906 L 16.863281 14.765625 L 16.773438 14.773438 L 16.679688 14.777344 L 16.582031 14.78125 L 16.488281 14.777344 L 16.390625 14.773438 L 16.300781 14.765625 L 16.207031 14.753906 L 16.117188 14.738281 L 16.027344 14.71875 L 15.9375 14.695312 L 15.765625 14.640625 L 15.601562 14.570312 L 15.519531 14.527344 L 15.441406 14.484375 L 15.367188 14.433594 L 15.292969 14.378906 L 15.152344 14.253906 L 15.085938 14.1875 L 15.019531 14.113281 L 14.957031 14.035156 L 14.898438 13.953125 L 14.839844 13.867188 L 14.785156 13.773438 L 14.734375 13.675781 L 14.683594 13.574219 L 14.636719 13.46875 L 14.59375 13.355469 L 14.550781 13.238281 L 14.511719 13.117188 L 14.472656 12.988281 L 14.441406 12.855469 L 14.410156 12.71875 L 14.386719 12.570312 L 14.363281 12.417969 L 14.34375 12.261719 L 14.328125 12.097656 L 14.316406 11.929688 L 14.308594 11.753906 L 14.300781 11.570312 L 14.300781 11.1875 L 14.308594 10.996094 L 14.316406 10.8125 L 14.328125 10.640625 L 14.34375 10.46875 L 14.363281 10.308594 L 14.386719 10.152344 L 14.410156 10.007812 L 14.441406 9.867188 L 14.472656 9.730469 L 14.511719 9.601562 L 14.550781 9.480469 L 14.59375 9.363281 L 14.636719 9.25 L 14.683594 9.144531 L 14.734375 9.039062 L 14.84375 8.851562 L 14.902344 8.765625 L 14.960938 8.6875 L 15.023438 8.609375 L 15.089844 8.539062 L 15.15625 8.472656 L 15.296875 8.355469 L 15.371094 8.304688 L 15.449219 8.257812 L 15.527344 8.214844 L 15.609375 8.175781 L 15.691406 8.144531 L 15.777344 8.113281 L 15.863281 8.085938 L 16.042969 8.039062 L 16.132812 8.023438 L 16.226562 8.007812 L 16.320312 7.996094 L 16.414062 7.988281 L 16.511719 7.984375 L 16.707031 7.984375 L 16.796875 7.988281 L 16.890625 7.996094 L 16.980469 8.007812 L 17.070312 8.023438 L 17.15625 8.039062 L 17.328125 8.085938 L 17.414062 8.113281 L 17.578125 8.175781 L 17.660156 8.214844 L 17.738281 8.257812 L 17.8125 8.304688 L 17.886719 8.355469 L 18.027344 8.472656 L 18.09375 8.539062 L 18.160156 8.609375 L 18.285156 8.765625 L 18.34375 8.851562 L 18.398438 8.945312 L 18.449219 9.039062 L 18.5 9.144531 L 18.546875 9.25 L 18.59375 9.363281 L 18.632812 9.480469 L 18.675781 9.601562 L 18.710938 9.730469 L 18.746094 9.867188 L 18.773438 10.007812 L 18.800781 10.152344 L 18.824219 10.308594 L 18.84375 10.46875 L 18.875 10.8125 L 18.882812 10.996094 L 18.886719 11.1875 Z M 18.03125 11.382812 L 18.03125 11.226562 L 18.027344 11.078125 L 18.023438 10.933594 L 18.015625 10.792969 L 18.007812 10.660156 L 17.984375 10.410156 L 17.972656 10.292969 L 17.957031 10.179688 L 17.9375 10.074219 L 17.898438 9.871094 L 17.875 9.777344 L 17.847656 9.6875 L 17.820312 9.601562 L 17.792969 9.523438 L 17.761719 9.445312 L 17.730469 9.371094 L 17.660156 9.238281 L 17.625 9.179688 L 17.585938 9.121094 L 17.542969 9.066406 L 17.457031 8.972656 L 17.410156 8.929688 L 17.363281 8.890625 L 17.316406 8.855469 L 17.265625 8.828125 L 17.15625 8.773438 L 17.101562 8.753906 L 17.046875 8.730469 L 16.929688 8.699219 L 16.867188 8.6875 L 16.808594 8.679688 L 16.742188 8.671875 L 16.679688 8.667969 L 16.539062 8.667969 L 16.472656 8.671875 L 16.339844 8.6875 L 16.277344 8.699219 L 16.152344 8.730469 L 16.09375 8.753906 L 16.039062 8.773438 L 15.929688 8.828125 L 15.878906 8.859375 L 15.828125 8.894531 L 15.777344 8.933594 L 15.730469 8.976562 L 15.6875 9.023438 L 15.601562 9.125 L 15.5625 9.183594 L 15.523438 9.246094 L 15.488281 9.308594 L 15.453125 9.375 L 15.421875 9.449219 L 15.390625 9.527344 L 15.363281 9.609375 L 15.335938 9.695312 L 15.3125 9.785156 L 15.289062 9.878906 L 15.265625 9.976562 L 15.246094 10.078125 L 15.214844 10.296875 L 15.199219 10.414062 L 15.175781 10.664062 L 15.167969 10.796875 L 15.160156 10.9375 L 15.15625 11.078125 L 15.152344 11.226562 L 15.152344 11.53125 L 15.15625 11.675781 L 15.160156 11.816406 L 15.167969 11.953125 L 15.175781 12.082031 L 15.1875 12.207031 L 15.199219 12.328125 L 15.214844 12.445312 L 15.230469 12.554688 L 15.246094 12.660156 L 15.265625 12.765625 L 15.289062 12.863281 L 15.3125 12.957031 L 15.339844 13.046875 L 15.367188 13.132812 L 15.394531 13.214844 L 15.425781 13.292969 L 15.457031 13.367188 L 15.527344 13.5 L 15.566406 13.5625 L 15.605469 13.621094 L 15.734375 13.773438 L 15.78125 13.816406 L 15.828125 13.855469 L 15.929688 13.925781 L 15.984375 13.957031 L 16.09375 14.003906 L 16.148438 14.023438 L 16.207031 14.042969 L 16.269531 14.058594 L 16.332031 14.070312 L 16.457031 14.085938 L 16.523438 14.089844 L 16.660156 14.089844 L 16.722656 14.085938 L 16.847656 14.070312 L 16.910156 14.058594 L 16.96875 14.042969 L 17.027344 14.023438 L 17.082031 14.003906 L 17.191406 13.957031 L 17.246094 13.925781 L 17.296875 13.890625 L 17.34375 13.855469 L 17.394531 13.816406 L 17.4375 13.773438 L 17.484375 13.722656 L 17.523438 13.671875 L 17.566406 13.621094 L 17.605469 13.5625 L 17.640625 13.5 L 17.679688 13.433594 L 17.714844 13.367188 L 17.746094 13.292969 L 17.777344 13.214844 L 17.808594 13.132812 L 17.835938 13.046875 L 17.859375 12.957031 L 17.886719 12.863281 L 17.90625 12.765625 L 17.929688 12.660156 L 17.949219 12.554688 L 17.964844 12.445312 L 17.980469 12.328125 L 17.996094 12.207031 L 18.003906 12.082031 L 18.015625 11.953125 L 18.023438 11.816406 L 18.027344 11.675781 L 18.03125 11.53125 Z M 18.03125 11.382812 "/>
<path style=" stroke:none;fill-rule:evenodd;fill:rgb(0%,0%,0%);fill-opacity:1;" d="M 20.140625 14.6875 L 20.140625 13.660156 L 21.054688 13.660156 L 21.054688 14.6875 Z M 20.140625 14.6875 "/>
<path style=" stroke:none;fill-rule:evenodd;fill:rgb(0%,0%,0%);fill-opacity:1;" d="M 26.847656 12.527344 L 26.847656 12.625 L 26.84375 12.722656 L 26.835938 12.816406 L 26.8125 13.003906 L 26.78125 13.183594 L 26.734375 13.355469 L 26.707031 13.441406 L 26.679688 13.519531 L 26.648438 13.601562 L 26.578125 13.75 L 26.539062 13.824219 L 26.496094 13.894531 L 26.402344 14.027344 L 26.300781 14.152344 L 26.246094 14.210938 L 26.1875 14.265625 L 26.128906 14.316406 L 26.066406 14.367188 L 26 14.417969 L 25.933594 14.460938 L 25.863281 14.503906 L 25.714844 14.582031 L 25.632812 14.617188 L 25.554688 14.648438 L 25.46875 14.675781 L 25.296875 14.722656 L 25.207031 14.738281 L 25.113281 14.753906 L 25.015625 14.765625 L 24.917969 14.773438 L 24.820312 14.777344 L 24.714844 14.78125 L 24.601562 14.777344 L 24.492188 14.773438 L 24.382812 14.761719 L 24.277344 14.746094 L 24.175781 14.726562 L 24.078125 14.703125 L 23.980469 14.671875 L 23.886719 14.640625 L 23.796875 14.601562 L 23.707031 14.558594 L 23.625 14.515625 L 23.542969 14.464844 L 23.460938 14.410156 L 23.3125 14.292969 L 23.242188 14.226562 L 23.109375 14.085938 L 23.050781 14.007812 L 22.933594 13.84375 L 22.882812 13.753906 L 22.832031 13.660156 L 22.738281 13.464844 L 22.660156 13.253906 L 22.625 13.144531 L 22.589844 13.027344 L 22.558594 12.910156 L 22.53125 12.789062 L 22.507812 12.660156 L 22.488281 12.53125 L 22.46875 12.398438 L 22.453125 12.265625 L 22.429688 11.984375 L 22.421875 11.6875 L 22.417969 11.535156 L 22.425781 11.191406 L 22.433594 11.027344 L 22.445312 10.867188 L 22.457031 10.710938 L 22.476562 10.558594 L 22.496094 10.410156 L 22.519531 10.265625 L 22.546875 10.125 L 22.578125 9.988281 L 22.613281 9.859375 L 22.648438 9.734375 L 22.6875 9.609375 L 22.730469 9.492188 L 22.777344 9.378906 L 22.824219 9.269531 L 22.875 9.164062 L 22.929688 9.066406 L 22.988281 8.96875 L 23.046875 8.878906 L 23.109375 8.792969 L 23.175781 8.710938 L 23.242188 8.632812 L 23.3125 8.558594 L 23.382812 8.488281 L 23.539062 8.363281 L 23.617188 8.308594 L 23.703125 8.253906 L 23.789062 8.207031 L 23.875 8.164062 L 24.0625 8.09375 L 24.15625 8.066406 L 24.257812 8.039062 L 24.355469 8.019531 L 24.460938 8.003906 L 24.566406 7.992188 L 24.671875 7.984375 L 24.847656 7.984375 L 24.914062 7.988281 L 24.980469 7.988281 L 25.042969 7.996094 L 25.109375 8 L 25.171875 8.007812 L 25.234375 8.019531 L 25.292969 8.027344 L 25.355469 8.039062 L 25.53125 8.085938 L 25.640625 8.125 L 25.75 8.171875 L 25.800781 8.195312 L 25.851562 8.222656 L 25.898438 8.253906 L 25.949219 8.285156 L 25.996094 8.316406 L 26.089844 8.386719 L 26.175781 8.464844 L 26.261719 8.550781 L 26.339844 8.644531 L 26.375 8.695312 L 26.445312 8.804688 L 26.507812 8.921875 L 26.539062 8.984375 L 26.566406 9.046875 L 26.59375 9.113281 L 26.621094 9.183594 L 26.644531 9.253906 L 26.664062 9.328125 L 25.859375 9.472656 L 25.832031 9.390625 L 25.800781 9.3125 L 25.765625 9.238281 L 25.730469 9.171875 L 25.644531 9.046875 L 25.597656 8.996094 L 25.546875 8.945312 L 25.496094 8.898438 L 25.4375 8.859375 L 25.320312 8.789062 L 25.257812 8.761719 L 25.195312 8.738281 L 25.128906 8.714844 L 25.0625 8.699219 L 24.992188 8.683594 L 24.921875 8.675781 L 24.773438 8.667969 L 24.703125 8.667969 L 24.570312 8.683594 L 24.503906 8.695312 L 24.378906 8.726562 L 24.320312 8.75 L 24.257812 8.773438 L 24.199219 8.800781 L 24.144531 8.832031 L 24.035156 8.902344 L 23.933594 8.988281 L 23.882812 9.039062 L 23.835938 9.089844 L 23.792969 9.140625 L 23.746094 9.199219 L 23.707031 9.261719 L 23.664062 9.324219 L 23.628906 9.390625 L 23.589844 9.460938 L 23.554688 9.535156 L 23.523438 9.609375 L 23.460938 9.773438 L 23.433594 9.859375 L 23.40625 9.949219 L 23.382812 10.042969 L 23.359375 10.140625 L 23.339844 10.238281 L 23.308594 10.449219 L 23.296875 10.558594 L 23.285156 10.671875 L 23.273438 10.789062 L 23.265625 10.910156 L 23.261719 11.03125 L 23.257812 11.160156 L 23.257812 11.289062 L 23.304688 11.203125 L 23.355469 11.125 L 23.414062 11.050781 L 23.472656 10.980469 L 23.535156 10.914062 L 23.601562 10.851562 L 23.671875 10.792969 L 23.746094 10.738281 L 23.824219 10.6875 L 23.90625 10.640625 L 23.988281 10.597656 L 24.078125 10.558594 L 24.257812 10.496094 L 24.351562 10.472656 L 24.449219 10.453125 L 24.546875 10.4375 L 24.648438 10.425781 L 24.753906 10.417969 L 24.949219 10.417969 L 25.039062 10.421875 L 25.125 10.429688 L 25.289062 10.453125 L 25.371094 10.46875 L 25.527344 10.507812 L 25.675781 10.5625 L 25.75 10.59375 L 25.820312 10.625 L 25.886719 10.660156 L 25.953125 10.699219 L 26.015625 10.738281 L 26.078125 10.785156 L 26.136719 10.828125 L 26.246094 10.929688 L 26.300781 10.984375 L 26.351562 11.039062 L 26.445312 11.15625 L 26.492188 11.21875 L 26.53125 11.285156 L 26.609375 11.425781 L 26.640625 11.496094 L 26.675781 11.570312 L 26.730469 11.726562 L 26.777344 11.890625 L 26.796875 11.976562 L 26.8125 12.0625 L 26.835938 12.242188 L 26.84375 12.335938 L 26.847656 12.429688 Z M 25.992188 12.5625 L 25.988281 12.496094 L 25.988281 12.429688 L 25.984375 12.363281 L 25.960938 12.175781 L 25.9375 12.058594 L 25.921875 12 L 25.890625 11.890625 L 25.871094 11.835938 L 25.847656 11.785156 L 25.824219 11.738281 L 25.800781 11.6875 L 25.773438 11.644531 L 25.746094 11.597656 L 25.71875 11.554688 L 25.6875 11.515625 L 25.617188 11.4375 L 25.582031 11.402344 L 25.503906 11.332031 L 25.464844 11.300781 L 25.378906 11.246094 L 25.285156 11.199219 L 25.234375 11.175781 L 25.1875 11.15625 L 25.132812 11.136719 L 25.023438 11.105469 L 24.96875 11.09375 L 24.910156 11.085938 L 24.847656 11.078125 L 24.789062 11.074219 L 24.722656 11.070312 L 24.660156 11.066406 L 24.613281 11.070312 L 24.566406 11.070312 L 24.519531 11.074219 L 24.476562 11.078125 L 24.335938 11.101562 L 24.195312 11.136719 L 24.101562 11.167969 L 24.058594 11.1875 L 24.015625 11.203125 L 23.886719 11.273438 L 23.808594 11.328125 L 23.730469 11.390625 L 23.695312 11.421875 L 23.664062 11.457031 L 23.628906 11.496094 L 23.566406 11.574219 L 23.511719 11.660156 L 23.484375 11.707031 L 23.4375 11.808594 L 23.417969 11.859375 L 23.398438 11.914062 L 23.382812 11.972656 L 23.371094 12.03125 L 23.359375 12.09375 L 23.351562 12.15625 L 23.347656 12.222656 L 23.34375 12.292969 L 23.34375 12.433594 L 23.347656 12.507812 L 23.355469 12.648438 L 23.367188 12.714844 L 23.375 12.785156 L 23.386719 12.851562 L 23.402344 12.917969 L 23.417969 12.980469 L 23.4375 13.046875 L 23.457031 13.109375 L 23.476562 13.167969 L 23.523438 13.285156 L 23.578125 13.394531 L 23.605469 13.445312 L 23.667969 13.546875 L 23.738281 13.640625 L 23.816406 13.726562 L 23.855469 13.765625 L 23.898438 13.804688 L 23.941406 13.839844 L 23.988281 13.875 L 24.082031 13.9375 L 24.128906 13.964844 L 24.179688 13.992188 L 24.230469 14.015625 L 24.285156 14.035156 L 24.394531 14.066406 L 24.449219 14.078125 L 24.507812 14.089844 L 24.625 14.097656 L 24.6875 14.101562 L 24.746094 14.101562 L 24.808594 14.097656 L 24.863281 14.089844 L 24.921875 14.085938 L 25.03125 14.0625 L 25.082031 14.050781 L 25.132812 14.035156 L 25.183594 14.015625 L 25.230469 13.996094 L 25.28125 13.976562 L 25.324219 13.949219 L 25.371094 13.925781 L 25.414062 13.898438 L 25.457031 13.867188 L 25.535156 13.804688 L 25.574219 13.769531 L 25.644531 13.691406 L 25.675781 13.652344 L 25.738281 13.566406 L 25.765625 13.519531 L 25.792969 13.46875 L 25.816406 13.421875 L 25.839844 13.371094 L 25.863281 13.316406 L 25.902344 13.207031 L 25.933594 13.089844 L 25.96875 12.902344 L 25.984375 12.769531 L 25.988281 12.703125 L 25.988281 12.632812 Z M 25.992188 12.5625 "/>
<path style="fill:none;stroke-width:0.75;stroke-linecap:round;stroke-linejoin:round;stroke:rgb(0%,0%,0%);stroke-opacity:1;stroke-miterlimit:10;" d="M 270.992188 279.742188 L 276.660156 279.742188 "/>
<path style="fill:none;stroke-width:0.75;stroke-linecap:round;stroke-linejoin:round;stroke:rgb(0%,0%,0%);stroke-opacity:1;stroke-miterlimit:10;" d="M 270.992188 190.289062 L 276.660156 190.289062 "/>
<path style="fill:none;stroke-width:0.75;stroke-linecap:round;stroke-linejoin:round;stroke:rgb(0%,0%,0%);stroke-opacity:1;stroke-miterlimit:10;" d="M 270.992188 100.835938 L 276.660156 100.835938 "/>
<path style="fill:none;stroke-width:0.75;stroke-linecap:round;stroke-linejoin:round;stroke:rgb(0%,0%,0%);stroke-opacity:1;stroke-miterlimit:10;" d="M 270.992188 11.382812 L 276.660156 11.382812 "/>
<g clip-path="url(#clip2)" clip-rule="nonzero">
<path style="fill:none;stroke-width:0.75;stroke-linecap:round;stroke-linejoin:round;stroke:rgb(0%,0%,0%);stroke-opacity:1;stroke-miterlimit:10;" d="M 38.609375 279.742188 L 270.992188 279.742188 "/>
<path style="fill:none;stroke-width:0.75;stroke-linecap:round;stroke-linejoin:round;stroke:rgb(0%,0%,0%);stroke-opacity:1;stroke-miterlimit:10;" d="M 38.609375 279.742188 L 270.992188 279.742188 "/>
</g>
<g clip-path="url(#clip3)" clip-rule="nonzero">
<path style=" stroke:none;fill-rule:evenodd;fill:rgb(74.509804%,74.509804%,74.509804%);fill-opacity:1;" d="M 54.34375 279.742188 L 61.605469 279.742188 L 61.605469 34.4375 L 54.34375 34.4375 Z M 54.34375 279.742188 "/>
</g>
<g clip-path="url(#clip4)" clip-rule="nonzero">
<path style="fill:none;stroke-width:0.75;stroke-linecap:round;stroke-linejoin:round;stroke:rgb(0%,0%,0%);stroke-opacity:1;stroke-miterlimit:10;" d="M 54.34375 279.742188 L 61.605469 279.742188 L 61.605469 34.4375 L 54.34375 34.4375 Z M 54.34375 279.742188 "/>
</g>
<g clip-path="url(#clip5)" clip-rule="nonzero">
<path style=" stroke:none;fill-rule:evenodd;fill:rgb(74.509804%,74.509804%,74.509804%);fill-opacity:1;" d="M 62.414062 279.742188 L 69.675781 279.742188 L 69.675781 121.226562 L 62.414062 121.226562 Z M 62.414062 279.742188 "/>
</g>
<g clip-path="url(#clip6)" clip-rule="nonzero">
<path style="fill:none;stroke-width:0.75;stroke-linecap:round;stroke-linejoin:round;stroke:rgb(0%,0%,0%);stroke-opacity:1;stroke-miterlimit:10;" d="M 62.414062 279.742188 L 69.675781 279.742188 L 69.675781 121.226562 L 62.414062 121.226562 Z M 62.414062 279.742188 "/>
</g>
<g clip-path="url(#clip7)" clip-rule="nonzero">
<path style=" stroke:none;fill-rule:evenodd;fill:rgb(100%,100%,100%);fill-opacity:1;" d="M 70.480469 279.742188 L 77.742188 279.742188 L 77.742188 139.179688 L 70.480469 139.179688 Z M 70.480469 279.742188 "/>
</g>
<g clip-path="url(#clip8)" clip-rule="nonzero">
<path style="fill:none;stroke-width:0.75;stroke-linecap:round;stroke-linejoin:round;stroke:rgb(0%,0%,0%);stroke-opacity:1;stroke-miterlimit:10;" d="M 70.480469 279.742188 L 77.742188 279.742188 L 77.742188 139.179688 L 70.480469 139.179688 Z M 70.480469 279.742188 "/>
</g>
<g clip-path="url(#clip9)" clip-rule="nonzero">
<path style=" stroke:none;fill-rule:evenodd;fill:rgb(100%,100%,100%);fill-opacity:1;" d="M 78.550781 279.742188 L 85.8125 279.742188 L 85.8125 149.609375 L 78.550781 149.609375 Z M 78.550781 279.742188 "/>
</g>
<g clip-path="url(#clip10)" clip-rule="nonzero">
<path style="fill:none;stroke-width:0.75;stroke-linecap:round;stroke-linejoin:round;stroke:rgb(0%,0%,0%);stroke-opacity:1;stroke-miterlimit:10;" d="M 78.550781 279.742188 L 85.8125 279.742188 L 85.8125 149.609375 L 78.550781 149.609375 Z M 78.550781 279.742188 "/>
</g>
<g clip-path="url(#clip11)" clip-rule="nonzero">
<path style=" stroke:none;fill-rule:evenodd;fill:rgb(100%,100%,100%);fill-opacity:1;" d="M 86.617188 279.742188 L 93.878906 279.742188 L 93.878906 159.277344 L 86.617188 159.277344 Z M 86.617188 279.742188 "/>
</g>
<g clip-path="url(#clip12)" clip-rule="nonzero">
<path style="fill:none;stroke-width:0.75;stroke-linecap:round;stroke-linejoin:round;stroke:rgb(0%,0%,0%);stroke-opacity:1;stroke-miterlimit:10;" d="M 86.617188 279.742188 L 93.878906 279.742188 L 93.878906 159.277344 L 86.617188 159.277344 Z M 86.617188 279.742188 "/>
</g>
<g clip-path="url(#clip13)" clip-rule="nonzero">
<path style=" stroke:none;fill-rule:evenodd;fill:rgb(100%,100%,100%);fill-opacity:1;" d="M 94.6875 279.742188 L 101.949219 279.742188 L 101.949219 184.203125 L 94.6875 184.203125 Z M 94.6875 279.742188 "/>
</g>
<g clip-path="url(#clip14)" clip-rule="nonzero">
<path style="fill:none;stroke-width:0.75;stroke-linecap:round;stroke-linejoin:round;stroke:rgb(0%,0%,0%);stroke-opacity:1;stroke-miterlimit:10;" d="M 94.6875 279.742188 L 101.949219 279.742188 L 101.949219 184.203125 L 94.6875 184.203125 Z M 94.6875 279.742188 "/>
</g>
<g clip-path="url(#clip15)" clip-rule="nonzero">
<path style=" stroke:none;fill-rule:evenodd;fill:rgb(100%,100%,100%);fill-opacity:1;" d="M 102.757812 279.742188 L 110.019531 279.742188 L 110.019531 201.359375 L 102.757812 201.359375 Z M 102.757812 279.742188 "/>
</g>
<g clip-path="url(#clip16)" clip-rule="nonzero">
<path style="fill:none;stroke-width:0.75;stroke-linecap:round;stroke-linejoin:round;stroke:rgb(0%,0%,0%);stroke-opacity:1;stroke-miterlimit:10;" d="M 102.757812 279.742188 L 110.019531 279.742188 L 110.019531 201.359375 L 102.757812 201.359375 Z M 102.757812 279.742188 "/>
</g>
<g clip-path="url(#clip17)" clip-rule="nonzero">
<path style="fill-rule:evenodd;fill:rgb(100%,100%,100%);fill-opacity:1;stroke-width:0.75;stroke-linecap:round;stroke-linejoin:round;stroke:rgb(0%,0%,0%);stroke-opacity:1;stroke-miterlimit:10;" d="M 110.824219 279.742188 L 118.085938 279.742188 L 118.085938 219.492188 L 110.824219 219.492188 Z M 110.824219 279.742188 "/>
</g>
<g clip-path="url(#clip18)" clip-rule="nonzero">
<path style="fill-rule:evenodd;fill:rgb(100%,100%,100%);fill-opacity:1;stroke-width:0.75;stroke-linecap:round;stroke-linejoin:round;stroke:rgb(0%,0%,0%);stroke-opacity:1;stroke-miterlimit:10;" d="M 118.894531 279.742188 L 126.15625 279.742188 L 126.15625 224.886719 L 118.894531 224.886719 Z M 118.894531 279.742188 "/>
</g>
<g clip-path="url(#clip19)" clip-rule="nonzero">
<path style="fill-rule:evenodd;fill:rgb(100%,100%,100%);fill-opacity:1;stroke-width:0.75;stroke-linecap:round;stroke-linejoin:round;stroke:rgb(0%,0%,0%);stroke-opacity:1;stroke-miterlimit:10;" d="M 126.964844 279.742188 L 134.226562 279.742188 L 134.226562 230.589844 L 126.964844 230.589844 Z M 126.964844 279.742188 "/>
</g>
<g clip-path="url(#clip20)" clip-rule="nonzero">
<path style=" stroke:none;fill-rule:evenodd;fill:rgb(100%,100%,100%);fill-opacity:1;" d="M 135.03125 279.742188 L 142.292969 279.742188 L 142.292969 239.542969 L 135.03125 239.542969 Z M 135.03125 279.742188 "/>
</g>
<g clip-path="url(#clip21)" clip-rule="nonzero">
<path style="fill:none;stroke-width:0.75;stroke-linecap:round;stroke-linejoin:round;stroke:rgb(0%,0%,0%);stroke-opacity:1;stroke-miterlimit:10;" d="M 135.03125 279.742188 L 142.292969 279.742188 L 142.292969 239.542969 L 135.03125 239.542969 Z M 135.03125 279.742188 "/>
</g>
<g clip-path="url(#clip22)" clip-rule="nonzero">
<path style=" stroke:none;fill-rule:evenodd;fill:rgb(100%,100%,100%);fill-opacity:1;" d="M 143.101562 279.742188 L 150.363281 279.742188 L 150.363281 243.691406 L 143.101562 243.691406 Z M 143.101562 279.742188 "/>
</g>
<g clip-path="url(#clip23)" clip-rule="nonzero">
<path style="fill:none;stroke-width:0.75;stroke-linecap:round;stroke-linejoin:round;stroke:rgb(0%,0%,0%);stroke-opacity:1;stroke-miterlimit:10;" d="M 143.101562 279.742188 L 150.363281 279.742188 L 150.363281 243.691406 L 143.101562 243.691406 Z M 143.101562 279.742188 "/>
</g>
<g clip-path="url(#clip24)" clip-rule="nonzero">
<path style=" stroke:none;fill-rule:evenodd;fill:rgb(100%,100%,100%);fill-opacity:1;" d="M 151.167969 279.742188 L 158.429688 279.742188 L 158.429688 251.832031 L 151.167969 251.832031 Z M 151.167969 279.742188 "/>
</g>
<g clip-path="url(#clip25)" clip-rule="nonzero">
<path style="fill:none;stroke-width:0.75;stroke-linecap:round;stroke-linejoin:round;stroke:rgb(0%,0%,0%);stroke-opacity:1;stroke-miterlimit:10;" d="M 151.167969 279.742188 L 158.429688 279.742188 L 158.429688 251.832031 L 151.167969 251.832031 Z M 151.167969 279.742188 "/>
</g>
<g clip-path="url(#clip26)" clip-rule="nonzero">
<path style=" stroke:none;fill-rule:evenodd;fill:rgb(100%,100%,100%);fill-opacity:1;" d="M 159.238281 279.742188 L 166.5 279.742188 L 166.5 258.394531 L 159.238281 258.394531 Z M 159.238281 279.742188 "/>
</g>
<g clip-path="url(#clip27)" clip-rule="nonzero">
<path style="fill:none;stroke-width:0.75;stroke-linecap:round;stroke-linejoin:round;stroke:rgb(0%,0%,0%);stroke-opacity:1;stroke-miterlimit:10;" d="M 159.238281 279.742188 L 166.5 279.742188 L 166.5 258.394531 L 159.238281 258.394531 Z M 159.238281 279.742188 "/>
</g>
<g clip-path="url(#clip28)" clip-rule="nonzero">
<path style=" stroke:none;fill-rule:evenodd;fill:rgb(100%,100%,100%);fill-opacity:1;" d="M 167.308594 279.742188 L 174.570312 279.742188 L 174.570312 259.230469 L 167.308594 259.230469 Z M 167.308594 279.742188 "/>
</g>
<g clip-path="url(#clip29)" clip-rule="nonzero">
<path style="fill:none;stroke-width:0.75;stroke-linecap:round;stroke-linejoin:round;stroke:rgb(0%,0%,0%);stroke-opacity:1;stroke-miterlimit:10;" d="M 167.308594 279.742188 L 174.570312 279.742188 L 174.570312 259.230469 L 167.308594 259.230469 Z M 167.308594 279.742188 "/>
</g>
<g clip-path="url(#clip30)" clip-rule="nonzero">
<path style=" stroke:none;fill-rule:evenodd;fill:rgb(100%,100%,100%);fill-opacity:1;" d="M 175.375 279.742188 L 182.636719 279.742188 L 182.636719 264.644531 L 175.375 264.644531 Z M 175.375 279.742188 "/>
</g>
<g clip-path="url(#clip31)" clip-rule="nonzero">
<path style="fill:none;stroke-width:0.75;stroke-linecap:round;stroke-linejoin:round;stroke:rgb(0%,0%,0%);stroke-opacity:1;stroke-miterlimit:10;" d="M 175.375 279.742188 L 182.636719 279.742188 L 182.636719 264.644531 L 175.375 264.644531 Z M 175.375 279.742188 "/>
</g>
<g clip-path="url(#clip32)" clip-rule="nonzero">
<path style=" stroke:none;fill-rule:evenodd;fill:rgb(100%,100%,100%);fill-opacity:1;" d="M 183.445312 279.742188 L 190.707031 279.742188 L 190.707031 266.269531 L 183.445312 266.269531 Z M 183.445312 279.742188 "/>
</g>
<g clip-path="url(#clip33)" clip-rule="nonzero">
<path style="fill:none;stroke-width:0.75;stroke-linecap:round;stroke-linejoin:round;stroke:rgb(0%,0%,0%);stroke-opacity:1;stroke-miterlimit:10;" d="M 183.445312 279.742188 L 190.707031 279.742188 L 190.707031 266.269531 L 183.445312 266.269531 Z M 183.445312 279.742188 "/>
</g>
<g clip-path="url(#clip34)" clip-rule="nonzero">
<path style=" stroke:none;fill-rule:evenodd;fill:rgb(100%,100%,100%);fill-opacity:1;" d="M 191.515625 279.742188 L 198.777344 279.742188 L 198.777344 269.730469 L 191.515625 269.730469 Z M 191.515625 279.742188 "/>
</g>
<g clip-path="url(#clip35)" clip-rule="nonzero">
<path style="fill:none;stroke-width:0.75;stroke-linecap:round;stroke-linejoin:round;stroke:rgb(0%,0%,0%);stroke-opacity:1;stroke-miterlimit:10;" d="M 191.515625 279.742188 L 198.777344 279.742188 L 198.777344 269.730469 L 191.515625 269.730469 Z M 191.515625 279.742188 "/>
</g>
<g clip-path="url(#clip36)" clip-rule="nonzero">
<path style=" stroke:none;fill-rule:evenodd;fill:rgb(100%,100%,100%);fill-opacity:1;" d="M 199.582031 279.742188 L 206.84375 279.742188 L 206.84375 271.347656 L 199.582031 271.347656 Z M 199.582031 279.742188 "/>
</g>
<g clip-path="url(#clip37)" clip-rule="nonzero">
<path style="fill:none;stroke-width:0.75;stroke-linecap:round;stroke-linejoin:round;stroke:rgb(0%,0%,0%);stroke-opacity:1;stroke-miterlimit:10;" d="M 199.582031 279.742188 L 206.84375 279.742188 L 206.84375 271.347656 L 199.582031 271.347656 Z M 199.582031 279.742188 "/>
</g>
<g clip-path="url(#clip38)" clip-rule="nonzero">
<path style=" stroke:none;fill-rule:evenodd;fill:rgb(100%,100%,100%);fill-opacity:1;" d="M 207.652344 279.742188 L 214.914062 279.742188 L 214.914062 272.40625 L 207.652344 272.40625 Z M 207.652344 279.742188 "/>
</g>
<g clip-path="url(#clip39)" clip-rule="nonzero">
<path style="fill:none;stroke-width:0.75;stroke-linecap:round;stroke-linejoin:round;stroke:rgb(0%,0%,0%);stroke-opacity:1;stroke-miterlimit:10;" d="M 207.652344 279.742188 L 214.914062 279.742188 L 214.914062 272.40625 L 207.652344 272.40625 Z M 207.652344 279.742188 "/>
</g>
<g clip-path="url(#clip40)" clip-rule="nonzero">
<path style=" stroke:none;fill-rule:evenodd;fill:rgb(100%,100%,100%);fill-opacity:1;" d="M 215.71875 279.742188 L 222.980469 279.742188 L 222.980469 275.890625 L 215.71875 275.890625 Z M 215.71875 279.742188 "/>
</g>
<g clip-path="url(#clip41)" clip-rule="nonzero">
<path style="fill:none;stroke-width:0.75;stroke-linecap:round;stroke-linejoin:round;stroke:rgb(0%,0%,0%);stroke-opacity:1;stroke-miterlimit:10;" d="M 215.71875 279.742188 L 222.980469 279.742188 L 222.980469 275.890625 L 215.71875 275.890625 Z M 215.71875 279.742188 "/>
</g>
<g clip-path="url(#clip42)" clip-rule="nonzero">
<path style="fill-rule:evenodd;fill:rgb(100%,100%,100%);fill-opacity:1;stroke-width:0.75;stroke-linecap:round;stroke-linejoin:round;stroke:rgb(0%,0%,0%);stroke-opacity:1;stroke-miterlimit:10;" d="M 223.789062 279.742188 L 231.050781 279.742188 L 231.050781 277.617188 L 223.789062 277.617188 Z M 223.789062 279.742188 "/>
</g>
<g clip-path="url(#clip43)" clip-rule="nonzero">
<path style=" stroke:none;fill-rule:evenodd;fill:rgb(100%,100%,100%);fill-opacity:1;" d="M 231.859375 279.742188 L 239.121094 279.742188 L 239.121094 278.183594 L 231.859375 278.183594 Z M 231.859375 279.742188 "/>
</g>
<g clip-path="url(#clip44)" clip-rule="nonzero">
<path style="fill:none;stroke-width:0.75;stroke-linecap:round;stroke-linejoin:round;stroke:rgb(0%,0%,0%);stroke-opacity:1;stroke-miterlimit:10;" d="M 231.859375 279.742188 L 239.121094 279.742188 L 239.121094 278.183594 L 231.859375 278.183594 Z M 231.859375 279.742188 "/>
</g>
<g clip-path="url(#clip45)" clip-rule="nonzero">
<path style=" stroke:none;fill-rule:evenodd;fill:rgb(100%,100%,100%);fill-opacity:1;" d="M 239.925781 279.742188 L 247.1875 279.742188 L 247.1875 279.0625 L 239.925781 279.0625 Z M 239.925781 279.742188 "/>
</g>
<g clip-path="url(#clip46)" clip-rule="nonzero">
<path style="fill:none;stroke-width:0.75;stroke-linecap:round;stroke-linejoin:round;stroke:rgb(0%,0%,0%);stroke-opacity:1;stroke-miterlimit:10;" d="M 239.925781 279.742188 L 247.1875 279.742188 L 247.1875 279.0625 L 239.925781 279.0625 Z M 239.925781 279.742188 "/>
</g>
<g clip-path="url(#clip47)" clip-rule="nonzero">
<path style="fill-rule:evenodd;fill:rgb(100%,100%,100%);fill-opacity:1;stroke-width:0.75;stroke-linecap:round;stroke-linejoin:round;stroke:rgb(0%,0%,0%);stroke-opacity:1;stroke-miterlimit:10;" d="M 247.996094 279.742188 L 255.257812 279.742188 L 255.257812 279.644531 L 247.996094 279.644531 Z M 247.996094 279.742188 "/>
</g>
<path style="fill:none;stroke-width:0.75;stroke-linecap:round;stroke-linejoin:round;stroke:rgb(0%,0%,0%);stroke-opacity:1;stroke-miterlimit:10;" d="M 38.609375 279.742188 L 270.992188 279.742188 L 270.992188 9.90625 L 38.609375 9.90625 Z M 38.609375 279.742188 "/>
</g>
</svg>
